<svg width="240" height="74" viewBox="0 0 240 74" fill="none" xmlns="http://www.w3.org/2000/svg">
<path d="M23 56V12.4H11V0.599998H53L49.8 12.4H39.8V56H23ZM84.9945 56V33.6H73.5945V56H56.2945V0.599998H73.5945V21.8H84.9945V0.599998H102.295V56H84.9945ZM113.013 56C110.746 52.2 109.279 48.6 108.612 45.2C107.946 41.8 107.613 38.7333 107.613 36C107.613 33.0667 107.946 29.7333 108.612 26C109.346 22.2667 110.746 18.9333 112.813 16H146.413C148.746 19.4667 150.246 22.9667 150.913 26.5C151.646 29.9667 152.013 33.1333 152.013 36C152.013 38.9333 151.679 42.2333 151.013 45.9C150.346 49.5667 148.913 52.9333 146.713 56H113.013ZM129.713 52.6C131.446 50.2 132.713 47.6 133.513 44.8C134.313 42 134.712 39.0667 134.712 36C134.712 32.8667 134.279 29.9333 133.413 27.2C132.613 24.4667 131.379 21.8667 129.713 19.4C128.046 21.8667 126.813 24.4667 126.013 27.2C125.279 29.9333 124.913 32.8667 124.913 36C124.913 39 125.279 41.8333 126.013 44.5C126.813 47.1 128.046 49.8 129.713 52.6ZM157.143 56V32C157.143 28.3333 157.576 25.3 158.443 22.9C159.376 20.4333 160.876 18.1333 162.943 16H183.043L183.143 16.2C179.876 18.9333 177.576 21.7333 176.243 24.6C174.976 27.4667 174.343 31.1 174.343 35.5V56H157.143ZM184.603 73.4V16H219.903C221.703 17.6667 223.17 19.6667 224.303 22C225.436 24.2667 226.236 26.5333 226.703 28.8C227.236 31 227.503 32.9333 227.503 34.6C227.503 39.4667 226.803 43.8 225.403 47.6C224.003 51.3333 222.17 54.1333 219.903 56H201.703V73.4H184.603ZM201.703 52.7C203.836 51.1667 205.77 49.0333 207.503 46.3C209.303 43.5 210.203 40.2333 210.203 36.5C210.203 32.9 209.503 29.7 208.103 26.9C206.77 24.1 204.636 21.6 201.703 19.4V52.7Z" fill="#FCE803"/>
</svg>
