<svg width="368" height="473" viewBox="0 0 368 473" fill="none" xmlns="http://www.w3.org/2000/svg">
<g filter="url(#filter0_i_33325_28955)">
<g clip-path="url(#clip0_33325_28955)">
<rect width="368" height="473" rx="32" fill="white" fill-opacity="0.02"/>
<g filter="url(#filter1_i_33325_28955)">
<rect x="-16" y="241" width="80" height="80" rx="16" fill="white" fill-opacity="0.02"/>
<rect x="-15.5" y="241.5" width="79" height="79" rx="15.5" stroke="white" stroke-opacity="0.04"/>
<path opacity="0.16" d="M-14.75 242.25L62.75 319.75M62.75 242.25L-14.75 319.75M11.499 241V321M23.9985 241V321M36.4998 241V321M64 268.5L-16 268.5M64 281L-16 281M64 293.501L-16 293.501M49 281C49 294.807 37.8071 306 24 306C10.1929 306 -1 294.807 -1 281C-1 267.193 10.1929 256 24 256C37.8071 256 49 267.193 49 281ZM36.5 281C36.5 287.904 30.9036 293.5 24 293.5C17.0964 293.5 11.5 287.904 11.5 281C11.5 274.096 17.0964 268.5 24 268.5C30.9036 268.5 36.5 274.096 36.5 281Z" stroke="url(#paint0_radial_33325_28955)" stroke-width="0.5"/>
<path opacity="0.32" d="M34.645 276.626C34.5692 276.583 34.5319 276.562 34.4952 276.54C34.1311 276.322 33.8238 276.021 33.5999 275.66C33.5773 275.624 33.5565 275.586 33.5131 275.511C33.4697 275.436 33.4477 275.398 33.4275 275.36C33.2266 274.985 33.1179 274.567 33.1114 274.141C33.1107 274.099 33.111 274.055 33.1124 273.968L33.122 273.401C33.1372 272.494 33.1449 272.039 33.0174 271.63C32.9041 271.267 32.7142 270.933 32.4612 270.65C32.1751 270.329 31.7797 270.1 30.987 269.644L30.3286 269.264C29.5381 268.809 29.1428 268.581 28.7231 268.494C28.3519 268.417 27.9678 268.421 27.5979 268.504C27.1804 268.598 26.79 268.831 26.0096 269.299L25.5343 269.583C25.4597 269.628 25.422 269.65 25.3846 269.671C25.0135 269.877 24.5993 269.992 24.175 270.005C24.1322 270.007 24.0887 270.007 24.0018 270.007C23.9153 270.007 23.8699 270.007 23.8273 270.005C23.402 269.991 22.9865 269.877 22.6149 269.67C22.5774 269.649 22.5409 269.626 22.4661 269.581L21.9913 269.296C21.2056 268.824 20.8122 268.588 20.3924 268.494C20.021 268.411 19.6357 268.408 19.2631 268.486C18.8423 268.574 18.4469 268.804 17.656 269.263L16.9959 269.646C16.2121 270.101 15.8192 270.329 15.5356 270.648C15.2839 270.931 15.0954 271.265 14.9828 271.627C14.8555 272.036 14.8627 272.492 14.8781 273.404L14.8876 273.97C14.889 274.056 14.8906 274.098 14.89 274.14C14.8837 274.566 14.7745 274.986 14.573 275.361C14.5531 275.398 14.5316 275.436 14.4887 275.51C14.4458 275.584 14.425 275.621 14.4028 275.657C14.1778 276.019 13.8685 276.322 13.5021 276.541C13.4659 276.563 13.4287 276.583 13.3536 276.625L12.8715 276.892C12.0695 277.337 11.6685 277.559 11.3768 277.876C11.1187 278.156 10.9232 278.488 10.8042 278.85C10.6697 279.258 10.6702 279.717 10.6723 280.634L10.674 281.384C10.6761 282.294 10.678 282.75 10.8129 283.156C10.9322 283.515 11.1266 283.845 11.3833 284.124C11.6734 284.438 12.0703 284.659 12.8663 285.102L13.3675 285.381C13.4337 285.418 13.4702 285.438 13.5055 285.459C13.8686 285.678 14.1745 285.98 14.3976 286.34C14.4217 286.379 14.4448 286.42 14.4911 286.501C14.5368 286.58 14.5599 286.62 14.581 286.66C14.7766 287.031 14.8816 287.442 14.8887 287.861C14.8895 287.906 14.8888 287.952 14.8872 288.044L14.8781 288.587C14.8626 289.502 14.8554 289.959 14.9835 290.369C15.0967 290.732 15.2865 291.067 15.5395 291.35C15.8256 291.671 16.2221 291.899 17.0148 292.356L17.6731 292.735C18.4635 293.191 18.858 293.418 19.2777 293.505C19.649 293.582 20.0329 293.579 20.4028 293.496C20.8209 293.402 21.2125 293.168 21.9952 292.699L22.467 292.417C22.5416 292.372 22.5786 292.35 22.6159 292.329C22.987 292.122 23.4017 292.008 23.826 291.994C23.8687 291.993 23.9122 291.993 23.9992 291.993C24.0864 291.993 24.1299 291.993 24.1728 291.994C24.598 292.008 25.0143 292.123 25.3859 292.33C25.4186 292.348 25.4513 292.368 25.5089 292.402L26.0104 292.704C26.7962 293.175 27.1883 293.411 27.6081 293.505C27.9796 293.588 28.3648 293.592 28.7374 293.514C29.1586 293.426 29.5554 293.195 30.3481 292.735L30.9983 292.358C31.7869 291.9 32.1807 291.672 32.4652 291.352C32.7169 291.068 32.9061 290.735 33.0187 290.373C33.145 289.967 33.1374 289.514 33.1223 288.616L33.1124 288.03C33.111 287.944 33.1107 287.901 33.1114 287.859C33.1177 287.433 33.2261 287.014 33.4275 286.638C33.4474 286.601 33.4691 286.564 33.5118 286.49C33.5547 286.415 33.5766 286.378 33.5988 286.342C33.8238 285.98 34.1327 285.677 34.4992 285.458C34.535 285.437 34.5717 285.417 34.645 285.376L35.1297 285.107C35.9318 284.663 36.3325 284.44 36.6243 284.124C36.8824 283.844 37.0781 283.512 37.1971 283.15C37.3308 282.744 37.3298 282.288 37.3277 281.381L37.326 280.616C37.3239 279.705 37.3228 279.25 37.188 278.844C37.0687 278.484 36.874 278.154 36.6174 277.876C36.3276 277.562 35.9301 277.34 35.1356 276.899L34.645 276.626Z" stroke="white" stroke-width="2.67" stroke-linecap="round" stroke-linejoin="round"/>
<path d="M18.666 281C18.666 283.946 21.0538 286.333 23.9993 286.333C26.9449 286.333 29.3327 283.946 29.3327 281C29.3327 278.054 26.9449 275.667 23.9993 275.667C21.0538 275.667 18.666 278.054 18.666 281Z" stroke="white" stroke-width="2.67" stroke-linecap="round" stroke-linejoin="round"/>
</g>
<g filter="url(#filter2_d_33325_28955)">
<rect x="72" y="241" width="80" height="80" rx="16" fill="#FCE803"/>
<rect x="72.5" y="241.5" width="79" height="79" rx="15.5" stroke="#101318" stroke-opacity="0.16"/>
<path opacity="0.16" d="M73.25 242.25L150.75 319.75M150.75 242.25L73.25 319.75M99.499 241V321M111.998 241V321M124.5 241V321M152 268.5L72 268.5M152 281L72 281M152 293.501L72 293.501M137 281C137 294.807 125.807 306 112 306C98.1929 306 87 294.807 87 281C87 267.193 98.1929 256 112 256C125.807 256 137 267.193 137 281ZM124.5 281C124.5 287.904 118.904 293.5 112 293.5C105.096 293.5 99.5 287.904 99.5 281C99.5 274.096 105.096 268.5 112 268.5C118.904 268.5 124.5 274.096 124.5 281Z" stroke="url(#paint1_radial_33325_28955)" stroke-width="0.5"/>
<path d="M112 275.259C109.333 269 100 269.666 100 277.667C100 285.667 112 292.333 112 292.333C112 292.333 124 285.667 124 277.667C124 269.666 114.667 269 112 275.259Z" fill="#101318" stroke="#101318" stroke-width="2.67" stroke-linecap="round" stroke-linejoin="round"/>
</g>
<g filter="url(#filter3_i_33325_28955)">
<rect x="160" y="241" width="80" height="80" rx="16" fill="white" fill-opacity="0.02"/>
<rect x="160.5" y="241.5" width="79" height="79" rx="15.5" stroke="white" stroke-opacity="0.04"/>
<path opacity="0.16" d="M161.25 242.25L238.75 319.75M238.75 242.25L161.25 319.75M187.499 241V321M199.998 241V321M212.5 241V321M240 268.5L160 268.5M240 281L160 281M240 293.501L160 293.501M225 281C225 294.807 213.807 306 200 306C186.193 306 175 294.807 175 281C175 267.193 186.193 256 200 256C213.807 256 225 267.193 225 281ZM212.5 281C212.5 287.904 206.904 293.5 200 293.5C193.096 293.5 187.5 287.904 187.5 281C187.5 274.096 193.096 268.5 200 268.5C206.904 268.5 212.5 274.096 212.5 281Z" stroke="url(#paint2_radial_33325_28955)" stroke-width="0.5"/>
<g opacity="0.32">
<path d="M200.203 270.45C200.202 269.959 200.133 269.472 200 269C206.624 269.007 211.993 274.386 212 281C212.021 287.617 206.627 292.978 200 293C193.373 293.021 188.022 287.617 188 281C189.482 281.314 191.027 280.998 192.2 280.04C193.408 279.061 194.105 277.586 194.094 276.033C194.093 275.683 194.061 275.334 194 274.99C195.357 275.528 196.894 275.353 198.094 274.523C199.426 273.595 200.215 272.071 200.203 270.45Z" fill="white"/>
<path d="M197.336 287.667V287.669H197.333V287.667H197.336Z" fill="white"/>
<path d="M204.003 285V285.003H204V285H204.003Z" fill="white"/>
<path d="M198.669 281V281.003H198.667V281H198.669Z" fill="white"/>
<path d="M205.336 278.333V278.336H205.333V278.333H205.336Z" fill="white"/>
<path d="M188.003 274.333V274.336H188V274.333H188.003Z" fill="white"/>
<path d="M194.669 269V269.003H194.667V269H194.669Z" fill="white"/>
<path d="M189.336 269V269.003H189.333V269H189.336Z" fill="white"/>
</g>
<path d="M200.203 270.45C200.202 269.959 200.133 269.472 200 269C206.624 269.007 211.993 274.386 212 281C212.021 287.617 206.627 292.978 200 293C193.373 293.021 188.022 287.617 188 281.001C189.482 281.315 191.027 280.998 192.2 280.039C193.408 279.06 194.105 277.586 194.094 276.032C194.093 275.683 194.061 275.334 194 274.99C195.357 275.528 196.894 275.352 198.094 274.522C199.426 273.594 200.215 272.071 200.203 270.45Z" stroke="white" stroke-width="2.67" stroke-linecap="round" stroke-linejoin="round"/>
<path d="M188.003 274.336V274.333H188V274.336L188.003 274.336Z" stroke="white" stroke-width="2.67" stroke-linecap="round" stroke-linejoin="round"/>
<path d="M194.669 269.003V269H194.667V269.003L194.669 269.003Z" stroke="white" stroke-width="2.67" stroke-linecap="round" stroke-linejoin="round"/>
<path d="M189.336 269.003V269H189.333V269.003L189.336 269.003Z" stroke="white" stroke-width="2.67" stroke-linecap="round" stroke-linejoin="round"/>
<path d="M197.336 287.669V287.667H197.333V287.669L197.336 287.669Z" stroke="white" stroke-width="2.67" stroke-linecap="round" stroke-linejoin="round"/>
<path d="M204.003 285.003V285H204V285.003L204.003 285.003Z" stroke="white" stroke-width="2.67" stroke-linecap="round" stroke-linejoin="round"/>
<path d="M198.669 281.003V281H198.667V281.003L198.669 281.003Z" stroke="white" stroke-width="2.67" stroke-linecap="round" stroke-linejoin="round"/>
<path d="M205.336 278.336V278.333H205.333V278.336L205.336 278.336Z" stroke="white" stroke-width="2.67" stroke-linecap="round" stroke-linejoin="round"/>
<path d="M188.003 274.336V274.333H188V274.336L188.003 274.336Z" stroke="white" stroke-width="2.67" stroke-linecap="round" stroke-linejoin="round"/>
<path d="M194.669 269.003V269H194.667V269.003L194.669 269.003Z" stroke="white" stroke-width="2.67" stroke-linecap="round" stroke-linejoin="round"/>
<path d="M189.336 269.003V269H189.333V269.003L189.336 269.003Z" stroke="white" stroke-width="2.67" stroke-linecap="round" stroke-linejoin="round"/>
</g>
<g filter="url(#filter4_i_33325_28955)">
<rect x="248" y="241" width="80" height="80" rx="16" fill="white" fill-opacity="0.02"/>
<rect x="248.5" y="241.5" width="79" height="79" rx="15.5" stroke="white" stroke-opacity="0.04"/>
<path opacity="0.16" d="M249.25 242.25L326.75 319.75M326.75 242.25L249.25 319.75M275.499 241V321M287.998 241V321M300.5 241V321M328 268.5L248 268.5M328 281L248 281M328 293.501L248 293.501M313 281C313 294.807 301.807 306 288 306C274.193 306 263 294.807 263 281C263 267.193 274.193 256 288 256C301.807 256 313 267.193 313 281ZM300.5 281C300.5 287.904 294.904 293.5 288 293.5C281.096 293.5 275.5 287.904 275.5 281C275.5 274.096 281.096 268.5 288 268.5C294.904 268.5 300.5 274.096 300.5 281Z" stroke="url(#paint3_radial_33325_28955)" stroke-width="0.5"/>
<path d="M292.001 279.667L286.667 285L284.001 282.333M277.334 287.4V280.27C277.334 279.557 277.334 279.201 277.421 278.869C277.497 278.575 277.624 278.297 277.795 278.046C277.987 277.763 278.255 277.528 278.791 277.058L285.193 271.457C286.187 270.587 286.684 270.152 287.244 269.986C287.737 269.84 288.264 269.84 288.757 269.986C289.317 270.152 289.815 270.587 290.811 271.458L297.211 277.058C297.747 277.528 298.014 277.763 298.207 278.046C298.377 278.297 298.503 278.575 298.58 278.869C298.667 279.201 298.667 279.557 298.667 280.27V287.405C298.667 288.895 298.667 289.642 298.377 290.211C298.121 290.713 297.712 291.121 297.211 291.376C296.641 291.667 295.895 291.667 294.405 291.667H281.597C280.106 291.667 279.36 291.667 278.79 291.376C278.288 291.121 277.88 290.713 277.625 290.211C277.334 289.641 277.334 288.894 277.334 287.4Z" stroke="white" stroke-width="2.67" stroke-linecap="round" stroke-linejoin="round"/>
</g>
<g filter="url(#filter5_i_33325_28955)">
<rect x="336" y="241" width="80" height="80" rx="16" fill="white" fill-opacity="0.02"/>
<rect x="336.5" y="241.5" width="79" height="79" rx="15.5" stroke="white" stroke-opacity="0.04"/>
<path opacity="0.16" d="M337.25 242.25L414.75 319.75M414.75 242.25L337.25 319.75M363.499 241V321M375.998 241V321M388.5 241V321M416 268.5L336 268.5M416 281L336 281M416 293.501L336 293.501M401 281C401 294.807 389.807 306 376 306C362.193 306 351 294.807 351 281C351 267.193 362.193 256 376 256C389.807 256 401 267.193 401 281ZM388.5 281C388.5 287.904 382.904 293.5 376 293.5C369.096 293.5 363.5 287.904 363.5 281C363.5 274.096 369.096 268.5 376 268.5C382.904 268.5 388.5 274.096 388.5 281Z" stroke="url(#paint4_radial_33325_28955)" stroke-width="0.5"/>
</g>
<g filter="url(#filter6_i_33325_28955)">
<rect x="-56" y="329" width="80" height="80" rx="16" fill="white" fill-opacity="0.02"/>
<rect x="-55.5" y="329.5" width="79" height="79" rx="15.5" stroke="white" stroke-opacity="0.04"/>
<path opacity="0.16" d="M-54.75 330.25L22.75 407.75M22.75 330.25L-54.75 407.75M-28.501 329V409M-16.0015 329V409M-3.50021 329V409M24 356.5L-56 356.5M24 369L-56 369M24 381.501L-56 381.501M9 369C9 382.807 -2.19288 394 -16 394C-29.8071 394 -41 382.807 -41 369C-41 355.193 -29.8071 344 -16 344C-2.19288 344 9 355.193 9 369ZM-3.5 369C-3.5 375.904 -9.09644 381.5 -16 381.5C-22.9036 381.5 -28.5 375.904 -28.5 369C-28.5 362.096 -22.9036 356.5 -16 356.5C-9.09644 356.5 -3.5 362.096 -3.5 369Z" stroke="url(#paint5_radial_33325_28955)" stroke-width="0.5"/>
</g>
<g filter="url(#filter7_i_33325_28955)">
<rect x="32" y="329" width="80" height="80" rx="16" fill="white" fill-opacity="0.02"/>
<rect x="32.5" y="329.5" width="79" height="79" rx="15.5" stroke="white" stroke-opacity="0.04"/>
<path opacity="0.16" d="M33.25 330.25L110.75 407.75M110.75 330.25L33.25 407.75M59.499 329V409M71.9985 329V409M84.4998 329V409M112 356.5L32 356.5M112 369L32 369M112 381.501L32 381.501M97 369C97 382.807 85.8071 394 72 394C58.1929 394 47 382.807 47 369C47 355.193 58.1929 344 72 344C85.8071 344 97 355.193 97 369ZM84.5 369C84.5 375.904 78.9036 381.5 72 381.5C65.0964 381.5 59.5 375.904 59.5 369C59.5 362.096 65.0964 356.5 72 356.5C78.9036 356.5 84.5 362.096 84.5 369Z" stroke="url(#paint6_radial_33325_28955)" stroke-width="0.5"/>
<path opacity="0.32" d="M81.0924 359.249C82.4245 360.491 83.488 361.993 84.2173 363.662C84.9465 365.331 85.326 367.132 85.3323 368.954C85.3387 370.775 84.9718 372.578 84.2542 374.253C83.5367 375.927 82.4837 377.436 81.1603 378.688M77.4551 363.149C78.2544 363.895 78.8925 364.796 79.33 365.797C79.7675 366.799 79.9952 367.879 79.999 368.972C80.0029 370.065 79.7827 371.147 79.3522 372.152C78.9216 373.156 78.2899 374.062 77.4958 374.813" stroke="white" stroke-width="2.67" stroke-linecap="round" stroke-linejoin="round"/>
<path d="M58.666 368.999C58.666 367.991 58.666 367.487 58.8006 367.08C59.0655 366.278 59.6944 365.649 60.4962 365.384C60.9036 365.249 61.4077 365.249 62.416 365.249H64.3138C64.688 365.249 64.8752 365.249 65.0481 365.202C65.2013 365.16 65.3458 365.091 65.4747 364.998C65.6202 364.894 65.7379 364.748 65.9731 364.457L68.2067 361.693C69.3711 360.252 69.9533 359.531 70.4634 359.453C70.9049 359.385 71.3511 359.543 71.6519 359.873C71.9993 360.255 71.9993 361.181 71.9993 363.034V374.965C71.9993 376.818 71.9993 377.744 71.6519 378.126C71.3511 378.456 70.9049 378.614 70.4634 378.546C69.9533 378.467 69.3711 377.747 68.2067 376.306L65.9731 373.542C65.7379 373.251 65.6202 373.105 65.4747 373.001C65.3458 372.908 65.2013 372.839 65.0481 372.797C64.8752 372.749 64.688 372.749 64.3138 372.749H62.416C61.4077 372.749 60.9036 372.749 60.4962 372.615C59.6944 372.35 59.0655 371.721 58.8006 370.919C58.666 370.512 58.666 370.008 58.666 368.999Z" stroke="white" stroke-width="2.67" stroke-linecap="round" stroke-linejoin="round"/>
</g>
<g filter="url(#filter8_i_33325_28955)">
<rect x="120" y="329" width="80" height="80" rx="16" fill="white" fill-opacity="0.02"/>
<rect x="120.5" y="329.5" width="79" height="79" rx="15.5" stroke="white" stroke-opacity="0.04"/>
<path opacity="0.16" d="M121.25 330.25L198.75 407.75M198.75 330.25L121.25 407.75M147.499 329V409M159.998 329V409M172.5 329V409M200 356.5L120 356.5M200 369L120 369M200 381.501L120 381.501M185 369C185 382.807 173.807 394 160 394C146.193 394 135 382.807 135 369C135 355.193 146.193 344 160 344C173.807 344 185 355.193 185 369ZM172.5 369C172.5 375.904 166.904 381.5 160 381.5C153.096 381.5 147.5 375.904 147.5 369C147.5 362.096 153.096 356.5 160 356.5C166.904 356.5 172.5 362.096 172.5 369Z" stroke="url(#paint7_radial_33325_28955)" stroke-width="0.5"/>
<path opacity="0.32" fill-rule="evenodd" clip-rule="evenodd" d="M157.333 375.667C152.179 375.667 148 371.488 148 366.333C148 361.179 152.179 357 157.333 357C162.488 357 166.667 361.179 166.667 366.333C166.667 371.488 162.488 375.667 157.333 375.667Z" fill="white"/>
<path d="M164 373L172 381M157.333 375.667C152.179 375.667 148 371.488 148 366.333C148 361.179 152.179 357 157.333 357C162.488 357 166.667 361.179 166.667 366.333C166.667 371.488 162.488 375.667 157.333 375.667Z" stroke="white" stroke-width="2.67" stroke-linecap="round" stroke-linejoin="round"/>
</g>
<g filter="url(#filter9_i_33325_28955)">
<rect x="208" y="329" width="80" height="80" rx="16" fill="white" fill-opacity="0.02"/>
<rect x="208.5" y="329.5" width="79" height="79" rx="15.5" stroke="white" stroke-opacity="0.04"/>
<path opacity="0.16" d="M209.25 330.25L286.75 407.75M286.75 330.25L209.25 407.75M235.499 329V409M247.998 329V409M260.5 329V409M288 356.5L208 356.5M288 369L208 369M288 381.501L208 381.501M273 369C273 382.807 261.807 394 248 394C234.193 394 223 382.807 223 369C223 355.193 234.193 344 248 344C261.807 344 273 355.193 273 369ZM260.5 369C260.5 375.904 254.904 381.5 248 381.5C241.096 381.5 235.5 375.904 235.5 369C235.5 362.096 241.096 356.5 248 356.5C254.904 356.5 260.5 362.096 260.5 369Z" stroke="url(#paint8_radial_33325_28955)" stroke-width="0.5"/>
<path opacity="0.32" d="M250.666 366.333V375.667M245.333 366.333V375.667M253.333 361H242.666C242.666 359.757 242.666 359.137 242.869 358.646C243.14 357.993 243.658 357.474 244.312 357.203C244.802 357 245.424 357 246.666 357H249.333C250.575 357 251.196 357 251.687 357.203C252.34 357.474 252.859 357.993 253.13 358.646C253.333 359.137 253.333 359.757 253.333 361Z" stroke="white" stroke-width="2.67" stroke-linecap="round" stroke-linejoin="round"/>
<path d="M256.001 361H240.001M256.001 361H258.667M256.001 361V376.738C256.001 378.228 256.001 378.974 255.71 379.544C255.455 380.045 255.046 380.454 254.544 380.71C253.974 381 253.229 381 251.739 381H244.263C242.773 381 242.026 381 241.456 380.71C240.955 380.454 240.547 380.045 240.291 379.544C240.001 378.973 240.001 378.227 240.001 376.733V361M240.001 361H237.334" stroke="white" stroke-width="2.67" stroke-linecap="round" stroke-linejoin="round"/>
</g>
<g filter="url(#filter10_i_33325_28955)">
<rect x="296" y="329" width="80" height="80" rx="16" fill="white" fill-opacity="0.02"/>
<rect x="296.5" y="329.5" width="79" height="79" rx="15.5" stroke="white" stroke-opacity="0.04"/>
<path opacity="0.16" d="M297.25 330.25L374.75 407.75M374.75 330.25L297.25 407.75M323.499 329V409M335.998 329V409M348.5 329V409M376 356.5L296 356.5M376 369L296 369M376 381.501L296 381.501M361 369C361 382.807 349.807 394 336 394C322.193 394 311 382.807 311 369C311 355.193 322.193 344 336 344C349.807 344 361 355.193 361 369ZM348.5 369C348.5 375.904 342.904 381.5 336 381.5C329.096 381.5 323.5 375.904 323.5 369C323.5 362.096 329.096 356.5 336 356.5C342.904 356.5 348.5 362.096 348.5 369Z" stroke="url(#paint9_radial_33325_28955)" stroke-width="0.5"/>
<path d="M346.667 381C346.667 377.318 341.892 374.333 336.001 374.333C330.11 374.333 325.334 377.318 325.334 381M336.001 370.333C332.319 370.333 329.334 367.349 329.334 363.667C329.334 359.985 332.319 357 336.001 357C339.683 357 342.667 359.985 342.667 363.667C342.667 367.349 339.683 370.333 336.001 370.333Z" stroke="white" stroke-width="2.67" stroke-linecap="round" stroke-linejoin="round"/>
</g>
</g>
<rect x="0.5" y="0.5" width="367" height="472" rx="31.5" stroke="white" stroke-opacity="0.04"/>
</g>
<defs>
<filter id="filter0_i_33325_28955" x="0" y="0" width="368" height="473" filterUnits="userSpaceOnUse" color-interpolation-filters="sRGB">
<feFlood flood-opacity="0" result="BackgroundImageFix"/>
<feBlend mode="normal" in="SourceGraphic" in2="BackgroundImageFix" result="shape"/>
<feColorMatrix in="SourceAlpha" type="matrix" values="0 0 0 0 0 0 0 0 0 0 0 0 0 0 0 0 0 0 127 0" result="hardAlpha"/>
<feOffset dy="1"/>
<feComposite in2="hardAlpha" operator="arithmetic" k2="-1" k3="1"/>
<feColorMatrix type="matrix" values="0 0 0 0 1 0 0 0 0 1 0 0 0 0 1 0 0 0 0.08 0"/>
<feBlend mode="normal" in2="shape" result="effect1_innerShadow_33325_28955"/>
</filter>
<filter id="filter1_i_33325_28955" x="-16" y="241" width="80" height="80" filterUnits="userSpaceOnUse" color-interpolation-filters="sRGB">
<feFlood flood-opacity="0" result="BackgroundImageFix"/>
<feBlend mode="normal" in="SourceGraphic" in2="BackgroundImageFix" result="shape"/>
<feColorMatrix in="SourceAlpha" type="matrix" values="0 0 0 0 0 0 0 0 0 0 0 0 0 0 0 0 0 0 127 0" result="hardAlpha"/>
<feOffset dy="1"/>
<feComposite in2="hardAlpha" operator="arithmetic" k2="-1" k3="1"/>
<feColorMatrix type="matrix" values="0 0 0 0 1 0 0 0 0 1 0 0 0 0 1 0 0 0 0.08 0"/>
<feBlend mode="normal" in2="shape" result="effect1_innerShadow_33325_28955"/>
</filter>
<filter id="filter2_d_33325_28955" x="-128" y="41" width="480" height="480" filterUnits="userSpaceOnUse" color-interpolation-filters="sRGB">
<feFlood flood-opacity="0" result="BackgroundImageFix"/>
<feColorMatrix in="SourceAlpha" type="matrix" values="0 0 0 0 0 0 0 0 0 0 0 0 0 0 0 0 0 0 127 0" result="hardAlpha"/>
<feMorphology radius="40" operator="dilate" in="SourceAlpha" result="effect1_dropShadow_33325_28955"/>
<feOffset/>
<feGaussianBlur stdDeviation="80"/>
<feColorMatrix type="matrix" values="0 0 0 0 0.960784 0 0 0 0 0.898039 0 0 0 0 0.239216 0 0 0 1 0"/>
<feBlend mode="normal" in2="BackgroundImageFix" result="effect1_dropShadow_33325_28955"/>
<feBlend mode="normal" in="SourceGraphic" in2="effect1_dropShadow_33325_28955" result="shape"/>
</filter>
<filter id="filter3_i_33325_28955" x="160" y="241" width="80" height="80" filterUnits="userSpaceOnUse" color-interpolation-filters="sRGB">
<feFlood flood-opacity="0" result="BackgroundImageFix"/>
<feBlend mode="normal" in="SourceGraphic" in2="BackgroundImageFix" result="shape"/>
<feColorMatrix in="SourceAlpha" type="matrix" values="0 0 0 0 0 0 0 0 0 0 0 0 0 0 0 0 0 0 127 0" result="hardAlpha"/>
<feOffset dy="1"/>
<feComposite in2="hardAlpha" operator="arithmetic" k2="-1" k3="1"/>
<feColorMatrix type="matrix" values="0 0 0 0 1 0 0 0 0 1 0 0 0 0 1 0 0 0 0.08 0"/>
<feBlend mode="normal" in2="shape" result="effect1_innerShadow_33325_28955"/>
</filter>
<filter id="filter4_i_33325_28955" x="248" y="241" width="80" height="80" filterUnits="userSpaceOnUse" color-interpolation-filters="sRGB">
<feFlood flood-opacity="0" result="BackgroundImageFix"/>
<feBlend mode="normal" in="SourceGraphic" in2="BackgroundImageFix" result="shape"/>
<feColorMatrix in="SourceAlpha" type="matrix" values="0 0 0 0 0 0 0 0 0 0 0 0 0 0 0 0 0 0 127 0" result="hardAlpha"/>
<feOffset dy="1"/>
<feComposite in2="hardAlpha" operator="arithmetic" k2="-1" k3="1"/>
<feColorMatrix type="matrix" values="0 0 0 0 1 0 0 0 0 1 0 0 0 0 1 0 0 0 0.08 0"/>
<feBlend mode="normal" in2="shape" result="effect1_innerShadow_33325_28955"/>
</filter>
<filter id="filter5_i_33325_28955" x="336" y="241" width="80" height="80" filterUnits="userSpaceOnUse" color-interpolation-filters="sRGB">
<feFlood flood-opacity="0" result="BackgroundImageFix"/>
<feBlend mode="normal" in="SourceGraphic" in2="BackgroundImageFix" result="shape"/>
<feColorMatrix in="SourceAlpha" type="matrix" values="0 0 0 0 0 0 0 0 0 0 0 0 0 0 0 0 0 0 127 0" result="hardAlpha"/>
<feOffset dy="1"/>
<feComposite in2="hardAlpha" operator="arithmetic" k2="-1" k3="1"/>
<feColorMatrix type="matrix" values="0 0 0 0 1 0 0 0 0 1 0 0 0 0 1 0 0 0 0.08 0"/>
<feBlend mode="normal" in2="shape" result="effect1_innerShadow_33325_28955"/>
</filter>
<filter id="filter6_i_33325_28955" x="-56" y="329" width="80" height="80" filterUnits="userSpaceOnUse" color-interpolation-filters="sRGB">
<feFlood flood-opacity="0" result="BackgroundImageFix"/>
<feBlend mode="normal" in="SourceGraphic" in2="BackgroundImageFix" result="shape"/>
<feColorMatrix in="SourceAlpha" type="matrix" values="0 0 0 0 0 0 0 0 0 0 0 0 0 0 0 0 0 0 127 0" result="hardAlpha"/>
<feOffset dy="1"/>
<feComposite in2="hardAlpha" operator="arithmetic" k2="-1" k3="1"/>
<feColorMatrix type="matrix" values="0 0 0 0 1 0 0 0 0 1 0 0 0 0 1 0 0 0 0.08 0"/>
<feBlend mode="normal" in2="shape" result="effect1_innerShadow_33325_28955"/>
</filter>
<filter id="filter7_i_33325_28955" x="32" y="329" width="80" height="80" filterUnits="userSpaceOnUse" color-interpolation-filters="sRGB">
<feFlood flood-opacity="0" result="BackgroundImageFix"/>
<feBlend mode="normal" in="SourceGraphic" in2="BackgroundImageFix" result="shape"/>
<feColorMatrix in="SourceAlpha" type="matrix" values="0 0 0 0 0 0 0 0 0 0 0 0 0 0 0 0 0 0 127 0" result="hardAlpha"/>
<feOffset dy="1"/>
<feComposite in2="hardAlpha" operator="arithmetic" k2="-1" k3="1"/>
<feColorMatrix type="matrix" values="0 0 0 0 1 0 0 0 0 1 0 0 0 0 1 0 0 0 0.08 0"/>
<feBlend mode="normal" in2="shape" result="effect1_innerShadow_33325_28955"/>
</filter>
<filter id="filter8_i_33325_28955" x="120" y="329" width="80" height="80" filterUnits="userSpaceOnUse" color-interpolation-filters="sRGB">
<feFlood flood-opacity="0" result="BackgroundImageFix"/>
<feBlend mode="normal" in="SourceGraphic" in2="BackgroundImageFix" result="shape"/>
<feColorMatrix in="SourceAlpha" type="matrix" values="0 0 0 0 0 0 0 0 0 0 0 0 0 0 0 0 0 0 127 0" result="hardAlpha"/>
<feOffset dy="1"/>
<feComposite in2="hardAlpha" operator="arithmetic" k2="-1" k3="1"/>
<feColorMatrix type="matrix" values="0 0 0 0 1 0 0 0 0 1 0 0 0 0 1 0 0 0 0.08 0"/>
<feBlend mode="normal" in2="shape" result="effect1_innerShadow_33325_28955"/>
</filter>
<filter id="filter9_i_33325_28955" x="208" y="329" width="80" height="80" filterUnits="userSpaceOnUse" color-interpolation-filters="sRGB">
<feFlood flood-opacity="0" result="BackgroundImageFix"/>
<feBlend mode="normal" in="SourceGraphic" in2="BackgroundImageFix" result="shape"/>
<feColorMatrix in="SourceAlpha" type="matrix" values="0 0 0 0 0 0 0 0 0 0 0 0 0 0 0 0 0 0 127 0" result="hardAlpha"/>
<feOffset dy="1"/>
<feComposite in2="hardAlpha" operator="arithmetic" k2="-1" k3="1"/>
<feColorMatrix type="matrix" values="0 0 0 0 1 0 0 0 0 1 0 0 0 0 1 0 0 0 0.08 0"/>
<feBlend mode="normal" in2="shape" result="effect1_innerShadow_33325_28955"/>
</filter>
<filter id="filter10_i_33325_28955" x="296" y="329" width="80" height="80" filterUnits="userSpaceOnUse" color-interpolation-filters="sRGB">
<feFlood flood-opacity="0" result="BackgroundImageFix"/>
<feBlend mode="normal" in="SourceGraphic" in2="BackgroundImageFix" result="shape"/>
<feColorMatrix in="SourceAlpha" type="matrix" values="0 0 0 0 0 0 0 0 0 0 0 0 0 0 0 0 0 0 127 0" result="hardAlpha"/>
<feOffset dy="1"/>
<feComposite in2="hardAlpha" operator="arithmetic" k2="-1" k3="1"/>
<feColorMatrix type="matrix" values="0 0 0 0 1 0 0 0 0 1 0 0 0 0 1 0 0 0 0.08 0"/>
<feBlend mode="normal" in2="shape" result="effect1_innerShadow_33325_28955"/>
</filter>
<radialGradient id="paint0_radial_33325_28955" cx="0" cy="0" r="1" gradientUnits="userSpaceOnUse" gradientTransform="translate(24 281) rotate(90) scale(40)">
<stop stop-color="white"/>
<stop offset="0.5" stop-color="white" stop-opacity="0.25"/>
<stop offset="1" stop-color="white" stop-opacity="0"/>
</radialGradient>
<radialGradient id="paint1_radial_33325_28955" cx="0" cy="0" r="1" gradientUnits="userSpaceOnUse" gradientTransform="translate(112 281) rotate(90) scale(40)">
<stop stop-color="#101318"/>
<stop offset="0.5" stop-color="#101318" stop-opacity="0.25"/>
<stop offset="1" stop-color="#101318" stop-opacity="0"/>
</radialGradient>
<radialGradient id="paint2_radial_33325_28955" cx="0" cy="0" r="1" gradientUnits="userSpaceOnUse" gradientTransform="translate(200 281) rotate(90) scale(40)">
<stop stop-color="white"/>
<stop offset="0.5" stop-color="white" stop-opacity="0.25"/>
<stop offset="1" stop-color="white" stop-opacity="0"/>
</radialGradient>
<radialGradient id="paint3_radial_33325_28955" cx="0" cy="0" r="1" gradientUnits="userSpaceOnUse" gradientTransform="translate(288 281) rotate(90) scale(40)">
<stop stop-color="white"/>
<stop offset="0.5" stop-color="white" stop-opacity="0.25"/>
<stop offset="1" stop-color="white" stop-opacity="0"/>
</radialGradient>
<radialGradient id="paint4_radial_33325_28955" cx="0" cy="0" r="1" gradientUnits="userSpaceOnUse" gradientTransform="translate(376 281) rotate(90) scale(40)">
<stop stop-color="white"/>
<stop offset="0.5" stop-color="white" stop-opacity="0.25"/>
<stop offset="1" stop-color="white" stop-opacity="0"/>
</radialGradient>
<radialGradient id="paint5_radial_33325_28955" cx="0" cy="0" r="1" gradientUnits="userSpaceOnUse" gradientTransform="translate(-16 369) rotate(90) scale(40)">
<stop stop-color="white"/>
<stop offset="0.5" stop-color="white" stop-opacity="0.25"/>
<stop offset="1" stop-color="white" stop-opacity="0"/>
</radialGradient>
<radialGradient id="paint6_radial_33325_28955" cx="0" cy="0" r="1" gradientUnits="userSpaceOnUse" gradientTransform="translate(72 369) rotate(90) scale(40)">
<stop stop-color="white"/>
<stop offset="0.5" stop-color="white" stop-opacity="0.25"/>
<stop offset="1" stop-color="white" stop-opacity="0"/>
</radialGradient>
<radialGradient id="paint7_radial_33325_28955" cx="0" cy="0" r="1" gradientUnits="userSpaceOnUse" gradientTransform="translate(160 369) rotate(90) scale(40)">
<stop stop-color="white"/>
<stop offset="0.5" stop-color="white" stop-opacity="0.25"/>
<stop offset="1" stop-color="white" stop-opacity="0"/>
</radialGradient>
<radialGradient id="paint8_radial_33325_28955" cx="0" cy="0" r="1" gradientUnits="userSpaceOnUse" gradientTransform="translate(248 369) rotate(90) scale(40)">
<stop stop-color="white"/>
<stop offset="0.5" stop-color="white" stop-opacity="0.25"/>
<stop offset="1" stop-color="white" stop-opacity="0"/>
</radialGradient>
<radialGradient id="paint9_radial_33325_28955" cx="0" cy="0" r="1" gradientUnits="userSpaceOnUse" gradientTransform="translate(336 369) rotate(90) scale(40)">
<stop stop-color="white"/>
<stop offset="0.5" stop-color="white" stop-opacity="0.25"/>
<stop offset="1" stop-color="white" stop-opacity="0"/>
</radialGradient>
<clipPath id="clip0_33325_28955">
<rect width="368" height="473" rx="32" fill="white"/>
</clipPath>
</defs>
</svg>
