<svg width="768" height="278" viewBox="0 0 768 278" fill="none" xmlns="http://www.w3.org/2000/svg">
<g filter="url(#filter0_i_33325_31606)">
<g clip-path="url(#clip0_33325_31606)">
<rect width="768" height="278" rx="32" fill="white" fill-opacity="0.02"/>
<g opacity="0.08" filter="url(#filter1_f_33325_31606)">
<path d="M256 139C256 280.385 141.385 395 0 395C-141.385 395 -256 280.385 -256 139C-256 -2.38489 -141.385 -117 0 -117C141.385 -117 256 -2.38489 256 139Z" fill="url(#paint0_radial_33325_31606)"/>
</g>
<g opacity="0.08" clip-path="url(#clip1_33325_31606)">
<mask id="mask0_33325_31606" style="mask-type:alpha" maskUnits="userSpaceOnUse" x="-771" y="-842" width="2774" height="1602">
<rect width="40" height="40" transform="matrix(0.866044 0.499967 -0.866044 0.499967 789.207 -21.0504)" stroke="white"/>
<rect width="40" height="40" transform="matrix(0.866044 0.499967 -0.866044 0.499967 719.926 -21.0504)" stroke="white"/>
<rect width="40" height="40" transform="matrix(0.866044 0.499967 -0.866044 0.499967 754.566 -1.05166)" stroke="white"/>
<rect width="40" height="40" transform="matrix(0.866044 0.499967 -0.866044 0.499967 789.209 18.947)" stroke="white"/>
<rect width="40" height="40" transform="matrix(0.866044 0.499967 -0.866044 0.499967 650.641 -21.0504)" stroke="white"/>
<rect width="40" height="40" transform="matrix(0.866044 0.499967 -0.866044 0.499967 685.283 -1.05167)" stroke="white"/>
<rect width="40" height="40" transform="matrix(0.866044 0.499967 -0.866044 0.499967 719.924 18.947)" stroke="white"/>
<rect width="40" height="40" transform="matrix(0.866044 0.499967 -0.866044 0.499967 754.566 38.9457)" stroke="white"/>
<rect width="40" height="40" transform="matrix(0.866044 0.499967 -0.866044 0.499967 789.209 58.9444)" stroke="white"/>
<rect width="40" height="40" transform="matrix(0.866044 0.499967 -0.866044 0.499967 581.359 -21.0503)" stroke="white"/>
<rect width="40" height="40" transform="matrix(0.866044 0.499967 -0.866044 0.499967 616 -1.05165)" stroke="white"/>
<rect width="40" height="40" transform="matrix(0.866044 0.499967 -0.866044 0.499967 650.643 18.947)" stroke="white"/>
<rect width="40" height="40" transform="matrix(0.866044 0.499967 -0.866044 0.499967 685.283 38.9457)" stroke="white"/>
<rect width="40" height="40" transform="matrix(0.866044 0.499967 -0.866044 0.499967 719.926 58.9444)" stroke="white"/>
<rect width="40" height="40" transform="matrix(0.866044 0.499967 -0.866044 0.499967 754.568 78.9431)" stroke="white"/>
<rect width="40" height="40" transform="matrix(0.866044 0.499967 -0.866044 0.499967 789.209 98.9418)" stroke="white"/>
<rect width="40" height="40" transform="matrix(0.866044 0.499967 -0.866044 0.499967 512.074 -21.0504)" stroke="white"/>
<rect width="40" height="40" transform="matrix(0.866044 0.499967 -0.866044 0.499967 546.717 -1.05166)" stroke="white"/>
<rect width="40" height="40" transform="matrix(0.866044 0.499967 -0.866044 0.499967 581.357 18.947)" stroke="white"/>
<rect width="40" height="40" transform="matrix(0.866044 0.499967 -0.866044 0.499967 616 38.9457)" stroke="white"/>
<rect width="40" height="40" transform="matrix(0.866044 0.499967 -0.866044 0.499967 650.641 58.9444)" stroke="white"/>
<rect width="40" height="40" transform="matrix(0.866044 0.499967 -0.866044 0.499967 685.283 78.9431)" stroke="white"/>
<rect width="40" height="40" transform="matrix(0.866044 0.499967 -0.866044 0.499967 719.926 98.9418)" stroke="white"/>
<rect width="40" height="40" transform="matrix(0.866044 0.499967 -0.866044 0.499967 754.566 118.941)" stroke="white"/>
<rect width="40" height="40" transform="matrix(0.866044 0.499967 -0.866044 0.499967 789.209 138.939)" stroke="white"/>
<rect width="40" height="40" transform="matrix(0.866044 0.499967 -0.866044 0.499967 442.793 -21.0504)" stroke="white"/>
<rect width="40" height="40" transform="matrix(0.866044 0.499967 -0.866044 0.499967 477.434 -1.05167)" stroke="white"/>
<rect width="40" height="40" transform="matrix(0.866044 0.499967 -0.866044 0.499967 512.076 18.947)" stroke="white"/>
<rect width="40" height="40" transform="matrix(0.866044 0.499967 -0.866044 0.499967 546.717 38.9457)" stroke="white"/>
<rect width="40" height="40" transform="matrix(0.866044 0.499967 -0.866044 0.499967 581.359 58.9444)" stroke="white"/>
<rect width="40" height="40" transform="matrix(0.866044 0.499967 -0.866044 0.499967 616 78.9431)" stroke="white"/>
<rect width="40" height="40" transform="matrix(0.866044 0.499967 -0.866044 0.499967 650.643 98.9418)" stroke="white"/>
<rect width="40" height="40" transform="matrix(0.866044 0.499967 -0.866044 0.499967 685.285 118.941)" stroke="white"/>
<rect width="40" height="40" transform="matrix(0.866044 0.499967 -0.866044 0.499967 719.926 138.939)" stroke="white"/>
<rect width="40" height="40" transform="matrix(0.866044 0.499967 -0.866044 0.499967 754.568 158.938)" stroke="white"/>
<rect width="40" height="40" transform="matrix(0.866044 0.499967 -0.866044 0.499967 789.209 178.937)" stroke="white"/>
<rect width="40" height="40" transform="matrix(0.866044 0.499967 -0.866044 0.499967 373.508 -21.0504)" stroke="white"/>
<rect width="40" height="40" transform="matrix(0.866044 0.499967 -0.866044 0.499967 408.15 -1.05167)" stroke="white"/>
<rect width="40" height="40" transform="matrix(0.866044 0.499967 -0.866044 0.499967 442.791 18.947)" stroke="white"/>
<rect width="40" height="40" transform="matrix(0.866044 0.499967 -0.866044 0.499967 477.434 38.9457)" stroke="white"/>
<rect width="40" height="40" transform="matrix(0.866044 0.499967 -0.866044 0.499967 512.074 58.9444)" stroke="white"/>
<rect width="40" height="40" transform="matrix(0.866044 0.499967 -0.866044 0.499967 546.717 78.9431)" stroke="white"/>
<rect width="40" height="40" transform="matrix(0.866044 0.499967 -0.866044 0.499967 581.357 98.9418)" stroke="white"/>
<rect width="40" height="40" transform="matrix(0.866044 0.499967 -0.866044 0.499967 616 118.941)" stroke="white"/>
<rect width="40" height="40" transform="matrix(0.866044 0.499967 -0.866044 0.499967 650.643 138.939)" stroke="white"/>
<rect width="40" height="40" transform="matrix(0.866044 0.499967 -0.866044 0.499967 685.283 158.938)" stroke="white"/>
<rect width="40" height="40" transform="matrix(0.866044 0.499967 -0.866044 0.499967 719.926 178.937)" stroke="white"/>
<rect width="40" height="40" transform="matrix(0.866044 0.499967 -0.866044 0.499967 754.566 198.935)" stroke="white"/>
<rect width="40" height="40" transform="matrix(0.866044 0.499967 -0.866044 0.499967 789.209 218.934)" stroke="white"/>
<rect width="40" height="40" transform="matrix(0.866044 0.499967 -0.866044 0.499967 304.223 -21.0503)" stroke="white"/>
<rect width="40" height="40" transform="matrix(0.866044 0.499967 -0.866044 0.499967 338.865 -1.05165)" stroke="white"/>
<rect width="40" height="40" transform="matrix(0.866044 0.499967 -0.866044 0.499967 373.508 18.947)" stroke="white"/>
<rect width="40" height="40" transform="matrix(0.866044 0.499967 -0.866044 0.499967 408.148 38.9457)" stroke="white"/>
<rect width="40" height="40" transform="matrix(0.866044 0.499967 -0.866044 0.499967 442.791 58.9444)" stroke="white"/>
<rect width="40" height="40" transform="matrix(0.866044 0.499967 -0.866044 0.499967 477.432 78.9431)" stroke="white"/>
<rect width="40" height="40" transform="matrix(0.866044 0.499967 -0.866044 0.499967 512.074 98.9418)" stroke="white"/>
<rect width="40" height="40" transform="matrix(0.866044 0.499967 -0.866044 0.499967 546.715 118.941)" stroke="white"/>
<rect width="40" height="40" transform="matrix(0.866044 0.499967 -0.866044 0.499967 581.357 138.939)" stroke="white"/>
<rect width="40" height="40" transform="matrix(0.866044 0.499967 -0.866044 0.499967 616 158.938)" stroke="white"/>
<rect width="40" height="40" transform="matrix(0.866044 0.499967 -0.866044 0.499967 650.641 178.937)" stroke="white"/>
<rect width="40" height="40" transform="matrix(0.866044 0.499967 -0.866044 0.499967 685.283 198.935)" stroke="white"/>
<rect width="40" height="40" transform="matrix(0.866044 0.499967 -0.866044 0.499967 719.924 218.934)" stroke="white"/>
<rect width="40" height="40" transform="matrix(0.866044 0.499967 -0.866044 0.499967 754.566 238.933)" stroke="white"/>
<rect width="40" height="40" transform="matrix(0.866044 0.499967 -0.866044 0.499967 789.209 258.931)" stroke="white"/>
<rect width="40" height="40" transform="matrix(0.866044 0.499967 -0.866044 0.499967 234.941 -21.0504)" stroke="white"/>
<rect width="40" height="40" transform="matrix(0.866044 0.499967 -0.866044 0.499967 269.582 -1.05166)" stroke="white"/>
<rect width="40" height="40" transform="matrix(0.866044 0.499967 -0.866044 0.499967 304.225 18.947)" stroke="white"/>
<rect width="40" height="40" transform="matrix(0.866044 0.499967 -0.866044 0.499967 338.867 38.9457)" stroke="white"/>
<rect width="40" height="40" transform="matrix(0.866044 0.499967 -0.866044 0.499967 373.508 58.9444)" stroke="white"/>
<rect width="40" height="40" transform="matrix(0.866044 0.499967 -0.866044 0.499967 408.15 78.9431)" stroke="white"/>
<rect width="40" height="40" transform="matrix(0.866044 0.499967 -0.866044 0.499967 442.791 98.9418)" stroke="white"/>
<rect width="40" height="40" transform="matrix(0.866044 0.499967 -0.866044 0.499967 477.434 118.941)" stroke="white"/>
<rect width="40" height="40" transform="matrix(0.866044 0.499967 -0.866044 0.499967 512.074 138.939)" stroke="white"/>
<rect width="40" height="40" transform="matrix(0.866044 0.499967 -0.866044 0.499967 546.717 158.938)" stroke="white"/>
<rect width="40" height="40" transform="matrix(0.866044 0.499967 -0.866044 0.499967 581.359 178.937)" stroke="white"/>
<rect width="40" height="40" transform="matrix(0.866044 0.499967 -0.866044 0.499967 616 198.935)" stroke="white"/>
<rect width="40" height="40" transform="matrix(0.866044 0.499967 -0.866044 0.499967 650.643 218.934)" stroke="white"/>
<rect width="40" height="40" transform="matrix(0.866044 0.499967 -0.866044 0.499967 685.283 238.933)" stroke="white"/>
<rect width="40" height="40" transform="matrix(0.866044 0.499967 -0.866044 0.499967 719.926 258.931)" stroke="white"/>
<rect width="40" height="40" transform="matrix(0.866044 0.499967 -0.866044 0.499967 165.656 -21.0504)" stroke="white"/>
<rect width="40" height="40" transform="matrix(0.866044 0.499967 -0.866044 0.499967 200.299 -1.05167)" stroke="white"/>
<rect width="40" height="40" transform="matrix(0.866044 0.499967 -0.866044 0.499967 234.939 18.947)" stroke="white"/>
<rect width="40" height="40" transform="matrix(0.866044 0.499967 -0.866044 0.499967 269.582 38.9457)" stroke="white"/>
<rect width="40" height="40" transform="matrix(0.866044 0.499967 -0.866044 0.499967 304.225 58.9444)" stroke="white"/>
<rect width="40" height="40" transform="matrix(0.866044 0.499967 -0.866044 0.499967 338.865 78.9431)" stroke="white"/>
<rect width="40" height="40" transform="matrix(0.866044 0.499967 -0.866044 0.499967 373.508 98.9418)" stroke="white"/>
<rect width="40" height="40" transform="matrix(0.866044 0.499967 -0.866044 0.499967 408.148 118.941)" stroke="white"/>
<rect width="40" height="40" transform="matrix(0.866044 0.499967 -0.866044 0.499967 442.791 138.939)" stroke="white"/>
<rect width="40" height="40" transform="matrix(0.866044 0.499967 -0.866044 0.499967 477.432 158.938)" stroke="white"/>
<rect width="40" height="40" transform="matrix(0.866044 0.499967 -0.866044 0.499967 512.074 178.937)" stroke="white"/>
<rect width="40" height="40" transform="matrix(0.866044 0.499967 -0.866044 0.499967 546.717 198.935)" stroke="white"/>
<rect width="40" height="40" transform="matrix(0.866044 0.499967 -0.866044 0.499967 581.357 218.934)" stroke="white"/>
<rect width="40" height="40" transform="matrix(0.866044 0.499967 -0.866044 0.499967 616 238.933)" stroke="white"/>
<rect width="40" height="40" transform="matrix(0.866044 0.499967 -0.866044 0.499967 650.641 258.931)" stroke="white"/>
<rect width="40" height="40" transform="matrix(0.866044 0.499967 -0.866044 0.499967 96.375 -21.0504)" stroke="white"/>
<rect width="40" height="40" transform="matrix(0.866044 0.499967 -0.866044 0.499967 131.016 -1.05166)" stroke="white"/>
<rect width="40" height="40" transform="matrix(0.866044 0.499967 -0.866044 0.499967 165.658 18.947)" stroke="white"/>
<rect width="40" height="40" transform="matrix(0.866044 0.499967 -0.866044 0.499967 200.299 38.9457)" stroke="white"/>
<rect width="40" height="40" transform="matrix(0.866044 0.499967 -0.866044 0.499967 234.941 58.9444)" stroke="white"/>
<rect width="40" height="40" transform="matrix(0.866044 0.499967 -0.866044 0.499967 269.584 78.9431)" stroke="white"/>
<rect width="40" height="40" transform="matrix(0.866044 0.499967 -0.866044 0.499967 304.225 98.9418)" stroke="white"/>
<rect width="40" height="40" transform="matrix(0.866044 0.499967 -0.866044 0.499967 338.867 118.941)" stroke="white"/>
<rect width="40" height="40" transform="matrix(0.866044 0.499967 -0.866044 0.499967 373.508 138.939)" stroke="white"/>
<rect width="40" height="40" transform="matrix(0.866044 0.499967 -0.866044 0.499967 408.15 158.938)" stroke="white"/>
<rect width="40" height="40" transform="matrix(0.866044 0.499967 -0.866044 0.499967 442.791 178.937)" stroke="white"/>
<rect width="40" height="40" transform="matrix(0.866044 0.499967 -0.866044 0.499967 477.434 198.935)" stroke="white"/>
<rect width="40" height="40" transform="matrix(0.866044 0.499967 -0.866044 0.499967 512.076 218.934)" stroke="white"/>
<rect width="40" height="40" transform="matrix(0.866044 0.499967 -0.866044 0.499967 546.717 238.933)" stroke="white"/>
<rect width="40" height="40" transform="matrix(0.866044 0.499967 -0.866044 0.499967 581.359 258.931)" stroke="white"/>
<rect width="40" height="40" transform="matrix(0.866044 0.499967 -0.866044 0.499967 96.373 18.947)" stroke="white"/>
<rect width="40" height="40" transform="matrix(0.866044 0.499967 -0.866044 0.499967 131.016 38.9457)" stroke="white"/>
<rect width="40" height="40" transform="matrix(0.866044 0.499967 -0.866044 0.499967 165.656 58.9444)" stroke="white"/>
<rect width="40" height="40" transform="matrix(0.866044 0.499967 -0.866044 0.499967 200.299 78.9431)" stroke="white"/>
<rect width="40" height="40" transform="matrix(0.866044 0.499967 -0.866044 0.499967 234.941 98.9418)" stroke="white"/>
<rect width="40" height="40" transform="matrix(0.866044 0.499967 -0.866044 0.499967 269.582 118.941)" stroke="white"/>
<rect width="40" height="40" transform="matrix(0.866044 0.499967 -0.866044 0.499967 304.225 138.939)" stroke="white"/>
<rect width="40" height="40" transform="matrix(0.866044 0.499967 -0.866044 0.499967 338.865 158.938)" stroke="white"/>
<rect width="40" height="40" transform="matrix(0.866044 0.499967 -0.866044 0.499967 373.508 178.937)" stroke="white"/>
<rect width="40" height="40" transform="matrix(0.866044 0.499967 -0.866044 0.499967 408.148 198.935)" stroke="white"/>
<rect width="40" height="40" transform="matrix(0.866044 0.499967 -0.866044 0.499967 442.791 218.934)" stroke="white"/>
<rect width="40" height="40" transform="matrix(0.866044 0.499967 -0.866044 0.499967 477.434 238.933)" stroke="white"/>
<rect width="40" height="40" transform="matrix(0.866044 0.499967 -0.866044 0.499967 512.074 258.931)" stroke="white"/>
<rect width="40" height="40" transform="matrix(0.866044 0.499967 -0.866044 0.499967 96.373 58.9444)" stroke="white"/>
<rect width="40" height="40" transform="matrix(0.866044 0.499967 -0.866044 0.499967 131.014 78.9431)" stroke="white"/>
<rect width="40" height="40" transform="matrix(0.866044 0.499967 -0.866044 0.499967 165.656 98.9418)" stroke="white"/>
<rect width="40" height="40" transform="matrix(0.866044 0.499967 -0.866044 0.499967 200.299 118.941)" stroke="white"/>
<rect width="40" height="40" transform="matrix(0.866044 0.499967 -0.866044 0.499967 234.939 138.939)" stroke="white"/>
<rect width="40" height="40" transform="matrix(0.866044 0.499967 -0.866044 0.499967 269.582 158.938)" stroke="white"/>
<rect width="40" height="40" transform="matrix(0.866044 0.499967 -0.866044 0.499967 304.223 178.937)" stroke="white"/>
<rect width="40" height="40" transform="matrix(0.866044 0.499967 -0.866044 0.499967 338.865 198.935)" stroke="white"/>
<rect width="40" height="40" transform="matrix(0.866044 0.499967 -0.866044 0.499967 373.506 218.934)" stroke="white"/>
<rect width="40" height="40" transform="matrix(0.866044 0.499967 -0.866044 0.499967 408.148 238.933)" stroke="white"/>
<rect width="40" height="40" transform="matrix(0.866044 0.499967 -0.866044 0.499967 442.791 258.931)" stroke="white"/>
<rect width="40" height="40" transform="matrix(0.866044 0.499967 -0.866044 0.499967 96.373 98.9418)" stroke="white"/>
<rect width="40" height="40" transform="matrix(0.866044 0.499967 -0.866044 0.499967 131.016 118.941)" stroke="white"/>
<rect width="40" height="40" transform="matrix(0.866044 0.499967 -0.866044 0.499967 165.658 138.939)" stroke="white"/>
<rect width="40" height="40" transform="matrix(0.866044 0.499967 -0.866044 0.499967 200.299 158.938)" stroke="white"/>
<rect width="40" height="40" transform="matrix(0.866044 0.499967 -0.866044 0.499967 234.941 178.937)" stroke="white"/>
<rect width="40" height="40" transform="matrix(0.866044 0.499967 -0.866044 0.499967 269.582 198.935)" stroke="white"/>
<rect width="40" height="40" transform="matrix(0.866044 0.499967 -0.866044 0.499967 304.225 218.934)" stroke="white"/>
<rect width="40" height="40" transform="matrix(0.866044 0.499967 -0.866044 0.499967 338.865 238.933)" stroke="white"/>
<rect width="40" height="40" transform="matrix(0.866044 0.499967 -0.866044 0.499967 373.508 258.931)" stroke="white"/>
<rect width="40" height="40" transform="matrix(0.866044 0.499967 -0.866044 0.499967 96.373 138.939)" stroke="white"/>
<rect width="40" height="40" transform="matrix(0.866044 0.499967 -0.866044 0.499967 131.016 158.938)" stroke="white"/>
<rect width="40" height="40" transform="matrix(0.866044 0.499967 -0.866044 0.499967 165.656 178.937)" stroke="white"/>
<rect width="40" height="40" transform="matrix(0.866044 0.499967 -0.866044 0.499967 200.299 198.935)" stroke="white"/>
<rect width="40" height="40" transform="matrix(0.866044 0.499967 -0.866044 0.499967 234.939 218.934)" stroke="white"/>
<rect width="40" height="40" transform="matrix(0.866044 0.499967 -0.866044 0.499967 269.582 238.933)" stroke="white"/>
<rect width="40" height="40" transform="matrix(0.866044 0.499967 -0.866044 0.499967 304.223 258.931)" stroke="white"/>
<rect width="40" height="40" transform="matrix(0.866044 0.499967 -0.866044 0.499967 96.375 178.937)" stroke="white"/>
<rect width="40" height="40" transform="matrix(0.866044 0.499967 -0.866044 0.499967 131.016 198.935)" stroke="white"/>
<rect width="40" height="40" transform="matrix(0.866044 0.499967 -0.866044 0.499967 165.658 218.934)" stroke="white"/>
<rect width="40" height="40" transform="matrix(0.866044 0.499967 -0.866044 0.499967 200.299 238.933)" stroke="white"/>
<rect width="40" height="40" transform="matrix(0.866044 0.499967 -0.866044 0.499967 234.941 258.931)" stroke="white"/>
<rect width="40" height="40" transform="matrix(0.866044 0.499967 -0.866044 0.499967 96.373 218.934)" stroke="white"/>
<rect width="40" height="40" transform="matrix(0.866044 0.499967 -0.866044 0.499967 131.016 238.933)" stroke="white"/>
<rect width="40" height="40" transform="matrix(0.866044 0.499967 -0.866044 0.499967 165.656 258.931)" stroke="white"/>
<rect width="40" height="40" transform="matrix(0.866044 0.499967 -0.866044 0.499967 96.373 258.931)" stroke="white"/>
</mask>
<g mask="url(#mask0_33325_31606)">
<circle cx="616" cy="-41" r="512" fill="url(#paint1_radial_33325_31606)"/>
</g>
</g>
<g filter="url(#filter2_bdd_33325_31606)">
<g filter="url(#filter3_i_33325_31606)">
<rect width="200" height="88" rx="16" transform="matrix(0.866025 0.5 -0.866025 0.5 710.758 -116)" fill="url(#paint2_linear_33325_31606)"/>
<rect x="-2.98023e-08" y="0.5" width="199" height="87" rx="15.5" transform="matrix(0.866025 0.5 -0.866025 0.5 711.191 -115.75)" stroke="white" stroke-opacity="0.04"/>
<path opacity="0.16" d="M807.752 -54.75L807.752 22.75M874.869 -16L740.635 -16M831.567 -42.2505L762.285 -2.2505M842.392 -36.0008L773.11 3.99924M853.218 -29.7501L783.936 10.2499M853.218 -2.2499L783.936 -42.2499M842.393 3.9998L773.111 -36.0002M831.567 10.2504L762.285 -29.7496M829.403 -3.5C817.445 3.40356 798.059 3.40356 786.101 -3.5C774.144 -10.4036 774.144 -21.5964 786.101 -28.5C798.059 -35.4036 817.445 -35.4036 829.403 -28.5C841.36 -21.5964 841.36 -10.4036 829.403 -3.5ZM818.577 -9.75C812.599 -6.29822 802.905 -6.29822 796.927 -9.75C790.948 -13.2018 790.948 -18.7982 796.927 -22.25C802.905 -25.7018 812.599 -25.7018 818.577 -22.25C824.556 -18.7982 824.556 -13.2018 818.577 -9.75Z" stroke="url(#paint3_radial_33325_31606)" stroke-width="0.5"/>
</g>
<g filter="url(#filter4_i_33325_31606)">
<rect width="200" height="88" rx="16" transform="matrix(0.866025 0.5 -0.866025 0.5 669.189 -44)" fill="url(#paint4_linear_33325_31606)"/>
<rect x="-2.98023e-08" y="0.5" width="199" height="87" rx="15.5" transform="matrix(0.866025 0.5 -0.866025 0.5 669.622 -43.75)" stroke="white" stroke-opacity="0.04"/>
<path opacity="0.16" d="M669.189 -38.75L669.189 38.75M736.306 3.12924e-07L602.072 1.08927e-05M693.004 -26.2505L623.722 13.7495M703.829 -20.0008L634.547 19.9992M714.656 -13.7501L645.374 26.2499M714.656 13.7501L645.374 -26.2499M703.831 19.9998L634.549 -20.0002M693.004 26.2504L623.722 -13.7496M690.84 12.5C678.883 19.4036 659.496 19.4036 647.539 12.5C635.581 5.59644 635.582 -5.59644 647.539 -12.5C659.496 -19.4036 678.883 -19.4036 690.84 -12.5C702.797 -5.59644 702.797 5.59644 690.84 12.5ZM680.015 6.25C674.036 9.70178 664.343 9.70178 658.364 6.25C652.385 2.79822 652.385 -2.79822 658.364 -6.25C664.343 -9.70178 674.036 -9.70178 680.015 -6.25C685.993 -2.79822 685.993 2.79822 680.015 6.25Z" stroke="url(#paint5_radial_33325_31606)" stroke-width="0.5"/>
<path opacity="0.16" d="M717.687 -10.75L717.687 66.75M784.804 28L650.571 28M741.502 1.7495L672.22 41.7495M752.327 7.99924L683.045 47.9992M763.154 14.2499L693.872 54.2499M763.154 41.7501L693.872 1.7501M752.329 47.9998L683.047 7.99979M741.502 54.2504L672.22 14.2504M739.338 40.5C727.381 47.4036 707.994 47.4036 696.037 40.5C684.08 33.5964 684.08 22.4036 696.037 15.5C707.994 8.59644 727.381 8.59644 739.338 15.5C751.295 22.4036 751.295 33.5964 739.338 40.5ZM728.513 34.25C722.534 37.7018 712.841 37.7018 706.862 34.25C700.884 30.7982 700.884 25.2018 706.862 21.75C712.841 18.2982 722.534 18.2982 728.513 21.75C734.491 25.2018 734.491 30.7982 728.513 34.25Z" stroke="url(#paint6_radial_33325_31606)" stroke-width="0.5"/>
<path opacity="0.16" d="M766.184 17.25L766.184 94.75M833.301 56L699.067 56M789.998 29.7495L720.716 69.7495M800.823 35.9992L731.541 75.9992M811.65 42.2499L742.368 82.2499M811.65 69.7501L742.368 29.7501M800.825 75.9998L731.543 35.9998M789.999 82.2504L720.717 42.2504M787.834 68.5C775.877 75.4036 756.49 75.4036 744.533 68.5C732.576 61.5964 732.576 50.4036 744.533 43.5C756.49 36.5964 775.877 36.5964 787.834 43.5C799.792 50.4036 799.792 61.5964 787.834 68.5ZM777.009 62.25C771.03 65.7018 761.337 65.7018 755.358 62.25C749.38 58.7982 749.38 53.2018 755.358 49.75C761.337 46.2982 771.03 46.2982 777.009 49.75C782.988 53.2018 782.988 58.7982 777.009 62.25Z" stroke="url(#paint7_radial_33325_31606)" stroke-width="0.5"/>
<g clip-path="url(#clip2_33325_31606)">
<path d="M662.262 2L671.788 7.5M656.2 -1.5L658.798 2.74181e-06M658.798 2.74181e-06L657.066 1M658.798 2.74181e-06L660.53 -0.999997M676.118 4L676.984 4.5M661.396 -4.5L672.654 2M672.654 2L670.922 3M672.654 2L674.386 1M676.118 -2L682.181 1.5M666.592 -7.5L672.654 -4M672.654 -4L670.922 -3M672.654 -4L674.386 -5" stroke="white" stroke-width="2" stroke-linecap="round" stroke-linejoin="round"/>
</g>
<g clip-path="url(#clip3_33325_31606)">
<path d="M710.76 30L720.286 35.5M704.698 26.5L707.296 28M707.296 28L705.564 29M707.296 28L709.028 27M724.616 32L725.483 32.5M709.894 23.5L721.152 30M721.152 30L719.42 31M721.152 30L722.884 29M724.616 26L730.679 29.5M715.09 20.5L721.152 24M721.152 24L719.42 25M721.152 24L722.884 23" stroke="white" stroke-width="2" stroke-linecap="round" stroke-linejoin="round"/>
</g>
<g clip-path="url(#clip4_33325_31606)">
<path opacity="0.32" d="M759.256 58L768.782 63.5M753.194 54.5L755.792 56M773.112 60L773.978 60.5M758.39 51.5L769.648 58M773.112 54L779.174 57.5M763.586 48.5L769.648 52" stroke="white" stroke-width="2" stroke-linecap="round" stroke-linejoin="round"/>
<path d="M754.06 57L757.524 55M767.916 59L771.38 57M767.916 53L771.38 51" stroke="white" stroke-width="2" stroke-linecap="round" stroke-linejoin="round"/>
</g>
</g>
<g filter="url(#filter5_i_33325_31606)">
<rect width="200" height="88" rx="16" transform="matrix(0.866025 0.5 -0.866025 0.5 364.348 -124)" fill="url(#paint8_linear_33325_31606)"/>
<rect x="-2.98023e-08" y="0.5" width="199" height="87" rx="15.5" transform="matrix(0.866025 0.5 -0.866025 0.5 364.781 -123.75)" stroke="white" stroke-opacity="0.04"/>
<path opacity="0.16" d="M461.342 -62.75L461.342 14.75M528.459 -24L394.225 -24M485.157 -50.2505L415.875 -10.2505M495.981 -44.0007L426.699 -4.00074M506.808 -37.7501L437.526 2.24991M506.808 -10.2499L437.526 -50.2499M495.983 -4.00019L426.701 -44.0002M485.157 2.25042L415.875 -37.7496M482.992 -11.5C471.035 -4.59642 451.648 -4.59642 439.691 -11.5C427.734 -18.4035 427.734 -29.5964 439.691 -36.5C451.648 -43.4035 471.035 -43.4035 482.992 -36.5C494.95 -29.5964 494.95 -18.4035 482.992 -11.5ZM472.167 -17.75C466.188 -14.2982 456.495 -14.2982 450.516 -17.75C444.538 -21.2018 444.538 -26.7982 450.516 -30.25C456.495 -33.7018 466.188 -33.7018 472.167 -30.25C478.146 -26.7982 478.146 -21.2018 472.167 -17.75Z" stroke="url(#paint9_radial_33325_31606)" stroke-width="0.5"/>
</g>
<g filter="url(#filter6_i_33325_31606)">
<rect width="200" height="88" rx="16" transform="matrix(0.866025 0.5 -0.866025 0.5 544.48 -20)" fill="url(#paint10_linear_33325_31606)"/>
<rect x="-2.98023e-08" y="0.5" width="199" height="87" rx="15.5" transform="matrix(0.866025 0.5 -0.866025 0.5 544.913 -19.75)" stroke="white" stroke-opacity="0.04"/>
<path opacity="0.16" d="M544.48 -14.75L544.48 62.75M611.597 24L477.363 24M568.295 -2.25049L499.013 37.7495M579.12 3.99925L509.838 43.9993M589.947 10.2499L520.665 50.2499M589.947 37.7501L520.665 -2.24988M579.122 43.9998L509.84 3.99981M568.295 50.2504L499.013 10.2504M566.131 36.5C554.174 43.4036 534.787 43.4036 522.83 36.5C510.873 29.5965 510.873 18.4036 522.83 11.5C534.787 4.59646 554.174 4.59646 566.131 11.5C578.088 18.4036 578.088 29.5965 566.131 36.5ZM555.306 30.25C549.327 33.7018 539.634 33.7018 533.655 30.25C527.676 26.7982 527.676 21.2018 533.655 17.75C539.634 14.2982 549.327 14.2982 555.306 17.75C561.284 21.2018 561.284 26.7982 555.306 30.25Z" stroke="url(#paint11_radial_33325_31606)" stroke-width="0.5"/>
<path opacity="0.16" d="M592.979 13.25L592.979 90.75M660.095 52L525.862 52M616.793 25.7495L547.511 65.7495M627.618 31.9993L558.336 71.9993M638.445 38.2499L569.163 78.2499M638.445 65.7501L569.163 25.7501M627.62 71.9998L558.338 31.9998M616.794 78.2504L547.511 38.2504M614.629 64.5C602.672 71.4036 583.285 71.4036 571.328 64.5C559.371 57.5965 559.371 46.4036 571.328 39.5C583.285 32.5965 602.672 32.5965 614.629 39.5C626.586 46.4036 626.586 57.5965 614.629 64.5ZM603.804 58.25C597.825 61.7018 588.132 61.7018 582.153 58.25C576.175 54.7982 576.175 49.2018 582.153 45.75C588.132 42.2982 597.825 42.2982 603.804 45.75C609.782 49.2018 609.782 54.7982 603.804 58.25Z" stroke="url(#paint12_radial_33325_31606)" stroke-width="0.5"/>
<path opacity="0.16" d="M641.475 41.25L641.475 118.75M708.592 80L574.358 80M665.289 53.7495L596.007 93.7495M676.114 59.9993L606.832 99.9993M686.941 66.2499L617.659 106.25M686.941 93.7501L617.659 53.7501M676.116 99.9998L606.834 59.9998M665.29 106.25L596.008 66.2504M663.125 92.5C651.168 99.4036 631.781 99.4036 619.824 92.5C607.867 85.5965 607.867 74.4036 619.824 67.5C631.781 60.5965 651.168 60.5965 663.125 67.5C675.083 74.4036 675.083 85.5965 663.125 92.5ZM652.3 86.25C646.321 89.7018 636.628 89.7018 630.649 86.25C624.671 82.7982 624.671 77.2018 630.649 73.75C636.628 70.2982 646.321 70.2982 652.3 73.75C658.279 77.2018 658.279 82.7982 652.3 86.25Z" stroke="url(#paint13_radial_33325_31606)" stroke-width="0.5"/>
<g clip-path="url(#clip5_33325_31606)">
<path d="M542.749 32C546.097 30.067 546.097 26.933 542.749 25C539.401 23.067 533.972 23.067 530.624 25M545.347 23.5C543.434 22.3954 543.434 20.6046 545.347 19.5C547.26 18.3954 550.362 18.3954 552.275 19.5C554.188 20.6046 554.188 22.3954 552.275 23.5C550.362 24.6046 547.26 24.6046 545.347 23.5Z" stroke="white" stroke-width="2" stroke-linecap="round" stroke-linejoin="round"/>
</g>
<g clip-path="url(#clip6_33325_31606)">
<path opacity="0.32" d="M593.844 51.5C591.931 50.3954 591.931 48.6046 593.844 47.5C595.758 46.3954 598.86 46.3954 600.773 47.5C602.686 48.6046 602.686 50.3954 600.773 51.5C598.86 52.6046 595.758 52.6046 593.844 51.5Z" fill="white"/>
<path d="M591.247 60C594.595 58.067 594.595 54.933 591.247 53C587.899 51.067 582.471 51.067 579.122 53M593.845 51.5C591.932 50.3954 591.932 48.6046 593.845 47.5C595.758 46.3954 598.86 46.3954 600.773 47.5C602.686 48.6046 602.686 50.3954 600.773 51.5C598.86 52.6046 595.758 52.6046 593.845 51.5Z" stroke="white" stroke-width="2" stroke-linecap="round" stroke-linejoin="round"/>
</g>
<g clip-path="url(#clip7_33325_31606)">
<path opacity="0.32" d="M639.742 88C643.09 86.067 643.09 82.933 639.742 81C636.394 79.067 630.966 79.067 627.618 81" stroke="white" stroke-width="2" stroke-linecap="round" stroke-linejoin="round"/>
<path d="M642.341 75.5C640.427 76.6046 640.427 78.3954 642.341 79.5C644.254 80.6046 647.356 80.6046 649.269 79.5C651.182 78.3954 651.182 76.6046 649.269 75.5C647.356 74.3954 644.254 74.3954 642.341 75.5Z" stroke="white" stroke-width="2" stroke-linecap="round" stroke-linejoin="round"/>
</g>
</g>
<g filter="url(#filter7_i_33325_31606)">
<rect width="200" height="88" rx="16" transform="matrix(0.866025 0.5 -0.866025 0.5 724.613 84)" fill="url(#paint14_linear_33325_31606)"/>
<rect x="-2.98023e-08" y="0.5" width="199" height="87" rx="15.5" transform="matrix(0.866025 0.5 -0.866025 0.5 725.046 84.25)" stroke="white" stroke-opacity="0.04"/>
<path opacity="0.16" d="M724.613 89.25L724.613 166.75M791.73 128L657.496 128M748.428 101.75L679.146 141.75M759.253 107.999L689.971 147.999M770.079 114.25L700.797 154.25M770.079 141.75L700.797 101.75M759.255 148L689.973 108M748.428 154.25L679.146 114.25M746.264 140.5C734.307 147.404 714.92 147.404 702.963 140.5C691.005 133.596 691.005 122.404 702.963 115.5C714.92 108.596 734.307 108.596 746.264 115.5C758.221 122.404 758.221 133.596 746.264 140.5ZM735.439 134.25C729.46 137.702 719.767 137.702 713.788 134.25C707.809 130.798 707.809 125.202 713.788 121.75C719.767 118.298 729.46 118.298 735.439 121.75C741.417 125.202 741.417 130.798 735.439 134.25Z" stroke="url(#paint15_radial_33325_31606)" stroke-width="0.5"/>
<path opacity="0.16" d="M773.111 117.25L773.111 194.75M840.228 156L705.994 156M796.926 129.75L727.644 169.75M807.751 135.999L738.469 175.999M818.577 142.25L749.295 182.25M818.577 169.75L749.295 129.75M807.753 176L738.471 136M796.926 182.25L727.644 142.25M794.762 168.5C782.805 175.404 763.418 175.404 751.461 168.5C739.503 161.596 739.503 150.404 751.461 143.5C763.418 136.596 782.805 136.596 794.762 143.5C806.719 150.404 806.719 161.596 794.762 168.5ZM783.937 162.25C777.958 165.702 768.265 165.702 762.286 162.25C756.307 158.798 756.307 153.202 762.286 149.75C768.265 146.298 777.958 146.298 783.937 149.75C789.915 153.202 789.915 158.798 783.937 162.25Z" stroke="url(#paint16_radial_33325_31606)" stroke-width="0.5"/>
<path opacity="0.16" d="M821.607 145.25L821.607 222.75M888.724 184L754.49 184M845.422 157.75L776.14 197.75M856.247 163.999L786.965 203.999M867.074 170.25L797.792 210.25M867.074 197.75L797.792 157.75M856.249 204L786.967 164M845.422 210.25L776.14 170.25M843.258 196.5C831.301 203.404 811.914 203.404 799.957 196.5C787.999 189.596 787.999 178.404 799.957 171.5C811.914 164.596 831.301 164.596 843.258 171.5C855.215 178.404 855.215 189.596 843.258 196.5ZM832.433 190.25C826.454 193.702 816.761 193.702 810.782 190.25C804.803 186.798 804.803 181.202 810.782 177.75C816.761 174.298 826.454 174.298 832.433 177.75C838.411 181.202 838.411 186.798 832.433 190.25Z" stroke="url(#paint17_radial_33325_31606)" stroke-width="0.5"/>
<g clip-path="url(#clip8_33325_31606)">
<path d="M728.076 126L714.22 126L710.756 128L714.22 130L728.076 130M728.076 126L733.045 126L733.048 126C733.732 126 734.075 126 734.336 126.077C734.567 126.145 734.754 126.253 734.871 126.386C735.005 126.537 735.005 126.735 735.005 127.129L735.005 128.869C735.005 129.265 735.005 129.463 734.871 129.614C734.754 129.747 734.566 129.855 734.336 129.923C734.074 130 733.732 130 733.047 130L733.045 130L728.076 130M728.076 126L728.076 130" stroke="white" stroke-width="2" stroke-linecap="round" stroke-linejoin="round"/>
</g>
<path opacity="0.32" fill-rule="evenodd" clip-rule="evenodd" d="M759.254 156L762.718 154L781.543 154C782.229 154 782.572 154 782.834 154.077C783.065 154.145 783.252 154.253 783.369 154.386C783.503 154.537 783.503 154.735 783.503 155.131L783.503 156.869C783.503 157.265 783.503 157.463 783.369 157.614C783.252 157.747 783.065 157.855 782.834 157.923C782.572 158 782.229 158 781.543 158L762.718 158L759.254 156Z" fill="white"/>
<path d="M776.575 154L762.718 154L759.254 156L762.718 158L776.575 158M776.575 154L776.575 158M776.575 154L781.546 154C782.23 154 782.573 154 782.834 154.077C783.065 154.145 783.252 154.253 783.37 154.386C783.503 154.537 783.503 154.735 783.503 155.129L783.503 156.869C783.503 157.265 783.503 157.463 783.369 157.614C783.252 157.747 783.064 157.855 782.834 157.923C782.572 158 782.23 158 781.545 158L776.575 158" stroke="white" stroke-width="2" stroke-linecap="round" stroke-linejoin="round"/>
</g>
<g filter="url(#filter8_i_33325_31606)">
<rect width="200" height="88" rx="16" transform="matrix(0.866025 0.5 -0.866025 0.5 322.777 -52)" fill="url(#paint18_linear_33325_31606)"/>
<rect x="-2.98023e-08" y="0.5" width="199" height="87" rx="15.5" transform="matrix(0.866025 0.5 -0.866025 0.5 323.21 -51.75)" stroke="white" stroke-opacity="0.04"/>
<path opacity="0.16" d="M322.777 -46.75L322.777 30.75M389.894 -7.99998L255.66 -7.99997M346.592 -34.2505L277.31 5.74952M357.417 -28.0007L288.135 11.9993M368.243 -21.7501L298.961 18.2499M368.243 5.75012L298.961 -34.2499M357.419 11.9998L288.137 -28.0002M346.592 18.2504L277.31 -21.7496M344.428 4.50002C332.471 11.4036 313.084 11.4036 301.127 4.50002C289.169 -2.40354 289.169 -13.5964 301.127 -20.5C313.084 -27.4035 332.471 -27.4035 344.428 -20.5C356.385 -13.5964 356.385 -2.40354 344.428 4.50002ZM333.603 -1.74998C327.624 1.7018 317.931 1.7018 311.952 -1.74998C305.973 -5.20176 305.973 -10.7982 311.952 -14.25C317.931 -17.7018 327.624 -17.7018 333.603 -14.25C339.581 -10.7982 339.581 -5.20176 333.603 -1.74998Z" stroke="url(#paint19_radial_33325_31606)" stroke-width="0.5"/>
<path opacity="0.16" d="M371.275 -18.75L371.275 58.75M438.392 20L304.158 20M395.09 -6.25049L325.808 33.7495M405.915 -0.000747681L336.633 39.9993M416.742 6.24991L347.46 46.2499M416.742 33.7501L347.46 -6.24988M405.917 39.9998L336.635 -0.000190258M395.09 46.2504L325.808 6.25042M392.926 32.5C380.969 39.4036 361.582 39.4036 349.625 32.5C337.667 25.5965 337.667 14.4036 349.625 7.50002C361.582 0.596458 380.969 0.596457 392.926 7.50002C404.883 14.4036 404.883 25.5965 392.926 32.5ZM382.101 26.25C376.122 29.7018 366.429 29.7018 360.45 26.25C354.471 22.7982 354.471 17.2018 360.45 13.75C366.429 10.2982 376.122 10.2982 382.101 13.75C388.079 17.2018 388.079 22.7982 382.101 26.25Z" stroke="url(#paint20_radial_33325_31606)" stroke-width="0.5"/>
<path opacity="0.16" d="M419.771 9.25002L419.771 86.75M486.888 48L352.655 48M443.586 21.7495L374.304 61.7495M454.411 27.9993L385.129 67.9993M465.238 34.2499L395.956 74.2499M465.238 61.7501L395.956 21.7501M454.413 67.9998L385.131 27.9998M443.586 74.2504L374.304 34.2504M441.422 60.5C429.465 67.4036 410.078 67.4036 398.121 60.5C386.164 53.5965 386.164 42.4036 398.121 35.5C410.078 28.5965 429.465 28.5965 441.422 35.5C453.379 42.4036 453.379 53.5965 441.422 60.5ZM430.597 54.25C424.618 57.7018 414.925 57.7018 408.946 54.25C402.968 50.7982 402.968 45.2018 408.946 41.75C414.925 38.2982 424.618 38.2982 430.597 41.75C436.575 45.2018 436.575 50.7982 430.597 54.25Z" stroke="url(#paint21_radial_33325_31606)" stroke-width="0.5"/>
<g clip-path="url(#clip9_33325_31606)">
<path d="M327.108 -7.5001L320.179 -7.5001L320.179 -9.5001M331.253 -11.6476L331.41 -10.5168C331.449 -10.232 331.643 -9.96175 331.964 -9.74424L333.238 -8.881C333.987 -8.37343 333.988 -7.62691 333.238 -7.11934L331.964 -6.25611C331.642 -6.0386 331.449 -5.76784 331.41 -5.48297L331.253 -4.35264C331.161 -3.68787 330.247 -3.15987 329.096 -3.10682L327.138 -3.01643C326.644 -2.9937 326.175 -2.8818 325.798 -2.69644L324.303 -1.96089C323.424 -1.52833 322.131 -1.52775 321.252 -1.96031L319.756 -2.6963C319.38 -2.88166 318.912 -2.99377 318.418 -3.01651L316.46 -3.1066C315.309 -3.15964 314.393 -3.68785 314.302 -4.35263L314.146 -5.48326C314.106 -5.76813 313.912 -6.03845 313.591 -6.25596L312.316 -7.11949C311.567 -7.62706 311.568 -8.37314 312.317 -8.88072L313.591 -9.74424C313.912 -9.96175 314.106 -10.2323 314.145 -10.5172L314.302 -11.6478C314.394 -12.3126 315.308 -12.8405 316.459 -12.8936L318.418 -12.9837C318.912 -13.0064 319.379 -13.1189 319.756 -13.3043L321.251 -14.0398C322.131 -14.4724 323.425 -14.4718 324.304 -14.0393L325.798 -13.3041C326.175 -13.1187 326.643 -13.0066 327.137 -12.9839L329.095 -12.8936C330.247 -12.8406 331.161 -12.3123 331.253 -11.6476Z" stroke="white" stroke-width="2" stroke-linecap="round" stroke-linejoin="round"/>
</g>
<g clip-path="url(#clip10_33325_31606)">
<path opacity="0.32" d="M379.751 16.3523L379.907 17.483C379.947 17.7679 380.141 18.0383 380.462 18.2558L381.736 19.1192C382.485 19.6267 382.485 20.3733 381.736 20.8809L380.462 21.7442C380.141 21.9617 379.947 22.2322 379.907 22.517L379.751 23.6478C379.659 24.3125 378.745 24.8404 377.593 24.8935L375.635 24.9837C375.142 25.0064 374.673 25.1185 374.296 25.3038L372.801 26.0396C371.922 26.4721 370.629 26.4721 369.75 26.0396L368.254 25.3038C367.878 25.1185 367.409 25.0064 366.916 24.9837L364.957 24.8935C363.806 24.8404 362.892 24.3125 362.8 23.6478L362.643 22.517C362.604 22.2322 362.41 21.9617 362.089 21.7442L360.815 20.8809C360.065 20.3733 360.065 19.6267 360.815 19.1192L362.089 18.2558C362.41 18.0383 362.604 17.7679 362.643 17.483L362.8 16.3523C362.892 15.6875 363.806 15.1596 364.957 15.1066L366.916 15.0163C367.409 14.9936 367.878 14.8816 368.254 14.6962L369.75 13.9605C370.629 13.5279 371.922 13.5279 372.801 13.9605L374.296 14.6962C374.673 14.8816 375.142 14.9936 375.635 15.0163L377.593 15.1066C378.745 15.1596 379.659 15.6875 379.751 16.3523Z" fill="white"/>
<path d="M375.606 20.4999L368.677 20.4999L368.677 18.4999M379.751 16.3524L379.908 17.4831C379.947 17.768 380.141 18.0383 380.462 18.2558L381.736 19.1191C382.485 19.6267 382.486 20.3734 381.737 20.881L380.462 21.7438C380.14 21.9613 379.947 22.232 379.907 22.5168L379.752 23.6477C379.66 24.3125 378.745 24.8402 377.593 24.8933L375.635 24.9836C375.142 25.0064 374.673 25.1183 374.296 25.3037L372.801 26.0392C371.922 26.4717 370.629 26.4722 369.75 26.0397L368.254 25.3037C367.878 25.1183 367.41 25.0063 366.916 24.9836L364.958 24.8934C363.806 24.8404 362.891 24.3121 362.8 23.6473L362.644 22.5167C362.604 22.2318 362.41 21.9615 362.089 21.744L360.814 20.8805C360.065 20.3729 360.066 19.6268 360.815 19.1193L362.089 18.2557C362.41 18.0382 362.604 17.7677 362.643 17.4828L362.8 16.3522C362.892 15.6874 363.806 15.1595 364.957 15.1065L366.916 15.0162C367.41 14.9935 367.877 14.8813 368.254 14.696L369.75 13.9604C370.629 13.5279 371.922 13.528 372.802 13.9606L374.296 14.6959C374.673 14.8813 375.142 14.9936 375.635 15.0163L377.593 15.1064C378.745 15.1595 379.659 15.6876 379.751 16.3524Z" stroke="white" stroke-width="2" stroke-linecap="round" stroke-linejoin="round"/>
</g>
<g clip-path="url(#clip11_33325_31606)">
<path opacity="0.32" d="M428.404 45.4831L428.247 44.3524C428.156 43.6876 427.241 43.1595 426.089 43.1064L424.131 43.0163C423.638 42.9936 423.169 42.8813 422.792 42.6959L421.298 41.9606C420.419 41.528 419.125 41.5279 418.246 41.9604L416.75 42.696C416.374 42.8813 415.906 42.9935 415.412 43.0162L413.453 43.1065C412.302 43.1595 411.388 43.6874 411.296 44.3522L411.139 45.4828C411.1 45.7677 410.906 46.0382 410.585 46.2557L409.311 47.1193C408.562 47.6268 408.561 48.3729 409.31 48.8805L410.585 49.744C410.906 49.9615 411.1 50.2318 411.14 50.5167L411.296 51.6473C411.388 52.3121 412.303 52.8404 413.454 52.8934L415.412 52.9836C415.906 53.0063 416.374 53.1183 416.75 53.3037L418.246 54.0397C419.125 54.4722 420.418 54.4717 421.297 54.0392L422.792 53.3037C423.169 53.1183 423.638 53.0064 424.131 52.9836L426.089 52.8933C427.241 52.8402 428.156 52.3125 428.248 51.6477L428.403 50.5168C428.443 50.232 428.637 49.9613 428.958 49.7438L430.233 48.881C430.982 48.3734 430.981 47.6267 430.232 47.1191L428.958 46.2558C428.637 46.0383 428.443 45.768 428.404 45.4831Z" stroke="white" stroke-width="2" stroke-linecap="round" stroke-linejoin="round"/>
<path d="M424.102 48.5L417.174 48.5L417.174 46.5" stroke="white" stroke-width="2" stroke-linecap="round" stroke-linejoin="round"/>
</g>
</g>
<g filter="url(#filter9_i_33325_31606)">
<rect width="200" height="88" rx="16" transform="matrix(0.866025 0.5 -0.866025 0.5 502.912 52)" fill="url(#paint22_linear_33325_31606)"/>
<rect x="-2.98023e-08" y="0.5" width="199" height="87" rx="15.5" transform="matrix(0.866025 0.5 -0.866025 0.5 503.345 52.25)" stroke="white" stroke-opacity="0.04"/>
<path opacity="0.16" d="M502.912 57.25L502.912 134.75M570.029 96L435.795 96M526.727 69.7495L457.445 109.75M537.552 75.9993L468.27 115.999M548.378 82.2499L479.096 122.25M548.378 109.75L479.096 69.7501M537.553 116L468.271 75.9998M526.727 122.25L457.445 82.2504M524.563 108.5C512.605 115.404 493.219 115.404 481.261 108.5C469.304 101.596 469.304 90.4036 481.261 83.5C493.219 76.5965 512.605 76.5965 524.563 83.5C536.52 90.4036 536.52 101.596 524.563 108.5ZM513.737 102.25C507.759 105.702 498.065 105.702 492.087 102.25C486.108 98.7982 486.108 93.2018 492.087 89.75C498.065 86.2982 507.759 86.2982 513.737 89.75C519.716 93.2018 519.716 98.7982 513.737 102.25Z" stroke="url(#paint23_radial_33325_31606)" stroke-width="0.5"/>
<path opacity="0.16" d="M551.41 85.25L551.41 162.75M618.527 124L484.293 124M575.225 97.7495L505.943 137.75M586.05 103.999L516.768 143.999M596.876 110.25L527.594 150.25M596.876 137.75L527.594 97.7501M586.052 144L516.769 104M575.225 150.25L505.943 110.25M573.061 136.5C561.103 143.404 541.717 143.404 529.76 136.5C517.802 129.596 517.802 118.404 529.76 111.5C541.717 104.596 561.103 104.596 573.061 111.5C585.018 118.404 585.018 129.596 573.061 136.5ZM562.235 130.25C556.257 133.702 546.563 133.702 540.585 130.25C534.606 126.798 534.606 121.202 540.585 117.75C546.563 114.298 556.257 114.298 562.235 117.75C568.214 121.202 568.214 126.798 562.235 130.25Z" stroke="url(#paint24_radial_33325_31606)" stroke-width="0.5"/>
<path opacity="0.16" d="M599.906 113.25L599.906 190.75M667.023 152L532.789 152M623.721 125.75L554.439 165.75M634.546 131.999L565.264 171.999M645.372 138.25L576.09 178.25M645.372 165.75L576.09 125.75M634.548 172L565.266 132M623.721 178.25L554.439 138.25M621.557 164.5C609.6 171.404 590.213 171.404 578.256 164.5C566.298 157.596 566.298 146.404 578.256 139.5C590.213 132.596 609.6 132.596 621.557 139.5C633.514 146.404 633.514 157.596 621.557 164.5ZM610.732 158.25C604.753 161.702 595.06 161.702 589.081 158.25C583.102 154.798 583.102 149.202 589.081 145.75C595.06 142.298 604.753 142.298 610.732 145.75C616.71 149.202 616.71 154.798 610.732 158.25Z" stroke="url(#paint25_radial_33325_31606)" stroke-width="0.5"/>
<g clip-path="url(#clip12_33325_31606)">
<path d="M504.644 94L504.644 97L499.448 97M510.706 100.5C515.011 98.0147 515.011 93.9853 510.706 91.5C506.402 89.0147 499.423 89.0147 495.118 91.5C490.813 93.9853 490.813 98.0147 495.118 100.5C499.423 102.985 506.402 102.985 510.706 100.5Z" stroke="white" stroke-width="2" stroke-linecap="round" stroke-linejoin="round"/>
</g>
<g clip-path="url(#clip13_33325_31606)">
<path opacity="0.32" d="M559.204 119.5C563.509 121.985 563.509 126.015 559.204 128.5C554.9 130.985 547.921 130.985 543.616 128.5C539.311 126.015 539.311 121.985 543.616 119.5C547.921 117.015 554.9 117.015 559.204 119.5Z" fill="white"/>
<path d="M553.142 122L553.142 125L547.946 125M559.204 128.5C563.509 126.015 563.509 121.985 559.204 119.5C554.9 117.015 547.921 117.015 543.616 119.5C539.311 121.985 539.311 126.015 543.616 128.5C547.921 130.985 554.9 130.985 559.204 128.5Z" stroke="white" stroke-width="2" stroke-linecap="round" stroke-linejoin="round"/>
</g>
<g clip-path="url(#clip14_33325_31606)">
<path opacity="0.32" d="M607.7 147.5C612.005 149.985 612.005 154.015 607.7 156.5C603.396 158.985 596.417 158.985 592.112 156.5C587.807 154.015 587.807 149.985 592.112 147.5C596.417 145.015 603.396 145.015 607.7 147.5Z" stroke="white" stroke-width="2" stroke-linecap="round" stroke-linejoin="round"/>
<path d="M601.639 150L601.639 153L596.443 153" stroke="white" stroke-width="2" stroke-linecap="round" stroke-linejoin="round"/>
</g>
</g>
<g filter="url(#filter10_i_33325_31606)">
<rect width="200" height="88" rx="16" transform="matrix(0.866025 0.5 -0.866025 0.5 683.045 156)" fill="url(#paint26_linear_33325_31606)"/>
<rect x="-2.98023e-08" y="0.5" width="199" height="87" rx="15.5" transform="matrix(0.866025 0.5 -0.866025 0.5 683.478 156.25)" stroke="white" stroke-opacity="0.04"/>
<path opacity="0.16" d="M683.045 161.25L683.045 238.75M750.162 200L615.928 200M706.86 173.75L637.578 213.75M717.685 179.999L648.403 219.999M728.511 186.25L659.229 226.25M728.511 213.75L659.229 173.75M717.686 220L648.404 180M706.86 226.25L637.578 186.25M704.696 212.5C692.738 219.404 673.352 219.404 661.394 212.5C649.437 205.596 649.437 194.404 661.394 187.5C673.352 180.596 692.738 180.596 704.696 187.5C716.653 194.404 716.653 205.596 704.696 212.5ZM693.87 206.25C687.892 209.702 678.198 209.702 672.22 206.25C666.241 202.798 666.241 197.202 672.22 193.75C678.198 190.298 687.892 190.298 693.87 193.75C699.849 197.202 699.849 202.798 693.87 206.25Z" stroke="url(#paint27_radial_33325_31606)" stroke-width="0.5"/>
<path opacity="0.16" d="M731.543 189.25L731.543 266.75M798.66 228L664.426 228M755.358 201.75L686.076 241.75M766.183 207.999L696.901 247.999M777.009 214.25L707.727 254.25M777.009 241.75L707.727 201.75M766.184 248L696.902 208M755.358 254.25L686.076 214.25M753.194 240.5C741.236 247.404 721.85 247.404 709.892 240.5C697.935 233.596 697.935 222.404 709.892 215.5C721.85 208.596 741.236 208.596 753.194 215.5C765.151 222.404 765.151 233.596 753.194 240.5ZM742.368 234.25C736.39 237.702 726.696 237.702 720.718 234.25C714.739 230.798 714.739 225.202 720.718 221.75C726.696 218.298 736.39 218.298 742.368 221.75C748.347 225.202 748.347 230.798 742.368 234.25Z" stroke="url(#paint28_radial_33325_31606)" stroke-width="0.5"/>
<path opacity="0.16" d="M780.039 217.25L780.039 294.75M847.156 256L712.922 256M803.854 229.75L734.572 269.75M814.679 235.999L745.397 275.999M825.505 242.25L756.223 282.25M825.505 269.75L756.223 229.75M814.68 276L745.398 236M803.854 282.25L734.572 242.25M801.69 268.5C789.732 275.404 770.346 275.404 758.388 268.5C746.431 261.596 746.431 250.404 758.388 243.5C770.346 236.596 789.732 236.596 801.69 243.5C813.647 250.404 813.647 261.596 801.69 268.5ZM790.864 262.25C784.886 265.702 775.192 265.702 769.214 262.25C763.235 258.798 763.235 253.202 769.214 249.75C775.192 246.298 784.886 246.298 790.864 249.75C796.843 253.202 796.843 258.798 790.864 262.25Z" stroke="url(#paint29_radial_33325_31606)" stroke-width="0.5"/>
<g clip-path="url(#clip15_33325_31606)">
<path d="M687.374 195.5L685.816 194.6C684.846 194.04 684.36 193.76 683.801 193.655C683.309 193.563 682.779 193.563 682.287 193.655C681.728 193.76 681.243 194.04 680.273 194.6L673.691 198.4C672.721 198.96 672.236 199.24 672.054 199.563C671.895 199.847 671.894 200.153 672.054 200.437C672.235 200.76 672.72 201.04 673.688 201.598L680.276 205.402C681.244 205.961 681.728 206.24 682.287 206.345C682.778 206.437 683.31 206.437 683.802 206.345C684.36 206.24 684.845 205.961 685.813 205.402L687.374 204.5M692.57 202.5L696.901 200M696.901 200L692.57 197.5M696.901 200L684.776 200" stroke="white" stroke-width="2" stroke-linecap="round" stroke-linejoin="round"/>
</g>
<g clip-path="url(#clip16_33325_31606)">
<path opacity="0.32" d="M734.314 222.6L735.873 223.5L735.873 232.5L734.314 233.4C733.344 233.96 732.859 234.24 732.3 234.345C731.808 234.437 731.278 234.437 730.786 234.345C730.227 234.24 729.742 233.96 728.772 233.4L722.19 229.6C721.22 229.04 720.735 228.76 720.553 228.437C720.393 228.153 720.393 227.847 720.553 227.563C720.735 227.24 721.22 226.96 722.19 226.4L728.772 222.6C729.742 222.04 730.227 221.76 730.786 221.655C731.278 221.563 731.808 221.563 732.3 221.655C732.859 221.76 733.344 222.04 734.314 222.6Z" fill="white"/>
<path d="M735.872 223.5L734.314 222.6C733.344 222.04 732.858 221.76 732.299 221.655C731.807 221.563 731.277 221.563 730.785 221.655C730.226 221.76 729.741 222.04 728.771 222.6L722.189 226.4C721.219 226.96 720.734 227.24 720.552 227.563C720.393 227.847 720.392 228.153 720.552 228.437C720.733 228.76 721.218 229.04 722.186 229.598L728.774 233.402C729.742 233.961 730.226 234.24 730.785 234.345C731.277 234.437 731.808 234.437 732.299 234.345C732.858 234.24 733.342 233.961 734.311 233.402L735.872 232.5M741.068 230.5L745.399 228M745.399 228L741.068 225.5M745.399 228L733.274 228" stroke="white" stroke-width="2" stroke-linecap="round" stroke-linejoin="round"/>
</g>
<g clip-path="url(#clip17_33325_31606)">
<path opacity="0.32" d="M784.369 251.5L782.811 250.6C781.84 250.04 781.355 249.76 780.796 249.655C780.304 249.563 779.774 249.563 779.282 249.655C778.723 249.76 778.238 250.04 777.268 250.6L770.686 254.4C769.716 254.96 769.231 255.24 769.049 255.563C768.89 255.847 768.889 256.153 769.049 256.437C769.23 256.76 769.715 257.04 770.683 257.598L777.271 261.402C778.239 261.961 778.723 262.24 779.282 262.345C779.774 262.437 780.304 262.437 780.796 262.345C781.355 262.24 781.839 261.961 782.807 261.402L784.369 260.5" stroke="white" stroke-width="2" stroke-linecap="round" stroke-linejoin="round"/>
</g>
</g>
</g>
</g>
<rect x="0.5" y="0.5" width="767" height="277" rx="31.5" stroke="white" stroke-opacity="0.04"/>
</g>
<defs>
<filter id="filter0_i_33325_31606" x="0" y="0" width="768" height="278" filterUnits="userSpaceOnUse" color-interpolation-filters="sRGB">
<feFlood flood-opacity="0" result="BackgroundImageFix"/>
<feBlend mode="normal" in="SourceGraphic" in2="BackgroundImageFix" result="shape"/>
<feColorMatrix in="SourceAlpha" type="matrix" values="0 0 0 0 0 0 0 0 0 0 0 0 0 0 0 0 0 0 127 0" result="hardAlpha"/>
<feOffset dy="1"/>
<feComposite in2="hardAlpha" operator="arithmetic" k2="-1" k3="1"/>
<feColorMatrix type="matrix" values="0 0 0 0 1 0 0 0 0 1 0 0 0 0 1 0 0 0 0.08 0"/>
<feBlend mode="normal" in2="shape" result="effect1_innerShadow_33325_31606"/>
</filter>
<filter id="filter1_f_33325_31606" x="-384" y="-245" width="768" height="768" filterUnits="userSpaceOnUse" color-interpolation-filters="sRGB">
<feFlood flood-opacity="0" result="BackgroundImageFix"/>
<feBlend mode="normal" in="SourceGraphic" in2="BackgroundImageFix" result="shape"/>
<feGaussianBlur stdDeviation="64" result="effect1_foregroundBlur_33325_31606"/>
</filter>
<filter id="filter2_bdd_33325_31606" x="172.998" y="-228" width="1144.8" height="728" filterUnits="userSpaceOnUse" color-interpolation-filters="sRGB">
<feFlood flood-opacity="0" result="BackgroundImageFix"/>
<feGaussianBlur in="BackgroundImageFix" stdDeviation="4"/>
<feComposite in2="SourceAlpha" operator="in" result="effect1_backgroundBlur_33325_31606"/>
<feColorMatrix in="SourceAlpha" type="matrix" values="0 0 0 0 0 0 0 0 0 0 0 0 0 0 0 0 0 0 127 0" result="hardAlpha"/>
<feOffset dy="64"/>
<feGaussianBlur stdDeviation="16"/>
<feColorMatrix type="matrix" values="0 0 0 0 0.0627451 0 0 0 0 0.0745098 0 0 0 0 0.0941176 0 0 0 0.64 0"/>
<feBlend mode="normal" in2="effect1_backgroundBlur_33325_31606" result="effect2_dropShadow_33325_31606"/>
<feColorMatrix in="SourceAlpha" type="matrix" values="0 0 0 0 0 0 0 0 0 0 0 0 0 0 0 0 0 0 127 0" result="hardAlpha"/>
<feOffset dy="6"/>
<feColorMatrix type="matrix" values="0 0 0 0 1 0 0 0 0 1 0 0 0 0 1 0 0 0 0.04 0"/>
<feBlend mode="normal" in2="effect2_dropShadow_33325_31606" result="effect3_dropShadow_33325_31606"/>
<feBlend mode="normal" in="SourceGraphic" in2="effect3_dropShadow_33325_31606" result="shape"/>
</filter>
<filter id="filter3_i_33325_31606" x="634.547" y="-116" width="249.416" height="144" filterUnits="userSpaceOnUse" color-interpolation-filters="sRGB">
<feFlood flood-opacity="0" result="BackgroundImageFix"/>
<feBlend mode="normal" in="SourceGraphic" in2="BackgroundImageFix" result="shape"/>
<feColorMatrix in="SourceAlpha" type="matrix" values="0 0 0 0 0 0 0 0 0 0 0 0 0 0 0 0 0 0 127 0" result="hardAlpha"/>
<feOffset dy="1"/>
<feComposite in2="hardAlpha" operator="arithmetic" k2="-1" k3="1"/>
<feColorMatrix type="matrix" values="0 0 0 0 1 0 0 0 0 1 0 0 0 0 1 0 0 0 0.08 0"/>
<feBlend mode="normal" in2="shape" result="effect1_innerShadow_33325_31606"/>
</filter>
<filter id="filter4_i_33325_31606" x="592.979" y="-44" width="249.416" height="144" filterUnits="userSpaceOnUse" color-interpolation-filters="sRGB">
<feFlood flood-opacity="0" result="BackgroundImageFix"/>
<feBlend mode="normal" in="SourceGraphic" in2="BackgroundImageFix" result="shape"/>
<feColorMatrix in="SourceAlpha" type="matrix" values="0 0 0 0 0 0 0 0 0 0 0 0 0 0 0 0 0 0 127 0" result="hardAlpha"/>
<feOffset dy="1"/>
<feComposite in2="hardAlpha" operator="arithmetic" k2="-1" k3="1"/>
<feColorMatrix type="matrix" values="0 0 0 0 1 0 0 0 0 1 0 0 0 0 1 0 0 0 0.08 0"/>
<feBlend mode="normal" in2="shape" result="effect1_innerShadow_33325_31606"/>
</filter>
<filter id="filter5_i_33325_31606" x="288.137" y="-124" width="249.416" height="144" filterUnits="userSpaceOnUse" color-interpolation-filters="sRGB">
<feFlood flood-opacity="0" result="BackgroundImageFix"/>
<feBlend mode="normal" in="SourceGraphic" in2="BackgroundImageFix" result="shape"/>
<feColorMatrix in="SourceAlpha" type="matrix" values="0 0 0 0 0 0 0 0 0 0 0 0 0 0 0 0 0 0 127 0" result="hardAlpha"/>
<feOffset dy="1"/>
<feComposite in2="hardAlpha" operator="arithmetic" k2="-1" k3="1"/>
<feColorMatrix type="matrix" values="0 0 0 0 1 0 0 0 0 1 0 0 0 0 1 0 0 0 0.08 0"/>
<feBlend mode="normal" in2="shape" result="effect1_innerShadow_33325_31606"/>
</filter>
<filter id="filter6_i_33325_31606" x="468.27" y="-20" width="249.416" height="144" filterUnits="userSpaceOnUse" color-interpolation-filters="sRGB">
<feFlood flood-opacity="0" result="BackgroundImageFix"/>
<feBlend mode="normal" in="SourceGraphic" in2="BackgroundImageFix" result="shape"/>
<feColorMatrix in="SourceAlpha" type="matrix" values="0 0 0 0 0 0 0 0 0 0 0 0 0 0 0 0 0 0 127 0" result="hardAlpha"/>
<feOffset dy="1"/>
<feComposite in2="hardAlpha" operator="arithmetic" k2="-1" k3="1"/>
<feColorMatrix type="matrix" values="0 0 0 0 1 0 0 0 0 1 0 0 0 0 1 0 0 0 0.08 0"/>
<feBlend mode="normal" in2="shape" result="effect1_innerShadow_33325_31606"/>
</filter>
<filter id="filter7_i_33325_31606" x="648.402" y="84" width="249.416" height="144" filterUnits="userSpaceOnUse" color-interpolation-filters="sRGB">
<feFlood flood-opacity="0" result="BackgroundImageFix"/>
<feBlend mode="normal" in="SourceGraphic" in2="BackgroundImageFix" result="shape"/>
<feColorMatrix in="SourceAlpha" type="matrix" values="0 0 0 0 0 0 0 0 0 0 0 0 0 0 0 0 0 0 127 0" result="hardAlpha"/>
<feOffset dy="1"/>
<feComposite in2="hardAlpha" operator="arithmetic" k2="-1" k3="1"/>
<feColorMatrix type="matrix" values="0 0 0 0 1 0 0 0 0 1 0 0 0 0 1 0 0 0 0.08 0"/>
<feBlend mode="normal" in2="shape" result="effect1_innerShadow_33325_31606"/>
</filter>
<filter id="filter8_i_33325_31606" x="246.566" y="-52" width="249.416" height="144" filterUnits="userSpaceOnUse" color-interpolation-filters="sRGB">
<feFlood flood-opacity="0" result="BackgroundImageFix"/>
<feBlend mode="normal" in="SourceGraphic" in2="BackgroundImageFix" result="shape"/>
<feColorMatrix in="SourceAlpha" type="matrix" values="0 0 0 0 0 0 0 0 0 0 0 0 0 0 0 0 0 0 127 0" result="hardAlpha"/>
<feOffset dy="1"/>
<feComposite in2="hardAlpha" operator="arithmetic" k2="-1" k3="1"/>
<feColorMatrix type="matrix" values="0 0 0 0 1 0 0 0 0 1 0 0 0 0 1 0 0 0 0.08 0"/>
<feBlend mode="normal" in2="shape" result="effect1_innerShadow_33325_31606"/>
</filter>
<filter id="filter9_i_33325_31606" x="426.701" y="52" width="249.416" height="144" filterUnits="userSpaceOnUse" color-interpolation-filters="sRGB">
<feFlood flood-opacity="0" result="BackgroundImageFix"/>
<feBlend mode="normal" in="SourceGraphic" in2="BackgroundImageFix" result="shape"/>
<feColorMatrix in="SourceAlpha" type="matrix" values="0 0 0 0 0 0 0 0 0 0 0 0 0 0 0 0 0 0 127 0" result="hardAlpha"/>
<feOffset dy="1"/>
<feComposite in2="hardAlpha" operator="arithmetic" k2="-1" k3="1"/>
<feColorMatrix type="matrix" values="0 0 0 0 1 0 0 0 0 1 0 0 0 0 1 0 0 0 0.08 0"/>
<feBlend mode="normal" in2="shape" result="effect1_innerShadow_33325_31606"/>
</filter>
<filter id="filter10_i_33325_31606" x="606.834" y="156" width="249.416" height="144" filterUnits="userSpaceOnUse" color-interpolation-filters="sRGB">
<feFlood flood-opacity="0" result="BackgroundImageFix"/>
<feBlend mode="normal" in="SourceGraphic" in2="BackgroundImageFix" result="shape"/>
<feColorMatrix in="SourceAlpha" type="matrix" values="0 0 0 0 0 0 0 0 0 0 0 0 0 0 0 0 0 0 127 0" result="hardAlpha"/>
<feOffset dy="1"/>
<feComposite in2="hardAlpha" operator="arithmetic" k2="-1" k3="1"/>
<feColorMatrix type="matrix" values="0 0 0 0 1 0 0 0 0 1 0 0 0 0 1 0 0 0 0.08 0"/>
<feBlend mode="normal" in2="shape" result="effect1_innerShadow_33325_31606"/>
</filter>
<radialGradient id="paint0_radial_33325_31606" cx="0" cy="0" r="1" gradientUnits="userSpaceOnUse" gradientTransform="translate(-2.97518e-06 139) rotate(89.8527) scale(256.001)">
<stop stop-color="#FCE803"/>
<stop offset="1" stop-color="#FCE803" stop-opacity="0"/>
</radialGradient>
<radialGradient id="paint1_radial_33325_31606" cx="0" cy="0" r="1" gradientUnits="userSpaceOnUse" gradientTransform="translate(616 -41) rotate(90) scale(512)">
<stop stop-color="white"/>
<stop offset="1" stop-color="white" stop-opacity="0"/>
</radialGradient>
<linearGradient id="paint2_linear_33325_31606" x1="100" y1="0" x2="100" y2="88" gradientUnits="userSpaceOnUse">
<stop stop-color="white" stop-opacity="0.12"/>
<stop offset="1" stop-color="white" stop-opacity="0.02"/>
</linearGradient>
<radialGradient id="paint3_radial_33325_31606" cx="0" cy="0" r="1" gradientUnits="userSpaceOnUse" gradientTransform="translate(807.752 -16) rotate(150) scale(40 34.641)">
<stop stop-color="white"/>
<stop offset="0.5" stop-color="white" stop-opacity="0.25"/>
<stop offset="1" stop-color="white" stop-opacity="0"/>
</radialGradient>
<linearGradient id="paint4_linear_33325_31606" x1="100" y1="0" x2="100" y2="88" gradientUnits="userSpaceOnUse">
<stop stop-color="white" stop-opacity="0.12"/>
<stop offset="1" stop-color="white" stop-opacity="0.02"/>
</linearGradient>
<radialGradient id="paint5_radial_33325_31606" cx="0" cy="0" r="1" gradientUnits="userSpaceOnUse" gradientTransform="translate(669.189 2.6226e-06) rotate(150) scale(40 34.641)">
<stop stop-color="white"/>
<stop offset="0.5" stop-color="white" stop-opacity="0.25"/>
<stop offset="1" stop-color="white" stop-opacity="0"/>
</radialGradient>
<radialGradient id="paint6_radial_33325_31606" cx="0" cy="0" r="1" gradientUnits="userSpaceOnUse" gradientTransform="translate(717.687 28) rotate(150) scale(40 34.641)">
<stop stop-color="white"/>
<stop offset="0.5" stop-color="white" stop-opacity="0.25"/>
<stop offset="1" stop-color="white" stop-opacity="0"/>
</radialGradient>
<radialGradient id="paint7_radial_33325_31606" cx="0" cy="0" r="1" gradientUnits="userSpaceOnUse" gradientTransform="translate(766.184 56) rotate(150) scale(40 34.641)">
<stop stop-color="white"/>
<stop offset="0.5" stop-color="white" stop-opacity="0.25"/>
<stop offset="1" stop-color="white" stop-opacity="0"/>
</radialGradient>
<linearGradient id="paint8_linear_33325_31606" x1="100" y1="0" x2="100" y2="88" gradientUnits="userSpaceOnUse">
<stop stop-color="white" stop-opacity="0.12"/>
<stop offset="1" stop-color="white" stop-opacity="0.02"/>
</linearGradient>
<radialGradient id="paint9_radial_33325_31606" cx="0" cy="0" r="1" gradientUnits="userSpaceOnUse" gradientTransform="translate(461.342 -24) rotate(150) scale(40 34.641)">
<stop stop-color="white"/>
<stop offset="0.5" stop-color="white" stop-opacity="0.25"/>
<stop offset="1" stop-color="white" stop-opacity="0"/>
</radialGradient>
<linearGradient id="paint10_linear_33325_31606" x1="100" y1="0" x2="100" y2="88" gradientUnits="userSpaceOnUse">
<stop stop-color="white" stop-opacity="0.12"/>
<stop offset="1" stop-color="white" stop-opacity="0.02"/>
</linearGradient>
<radialGradient id="paint11_radial_33325_31606" cx="0" cy="0" r="1" gradientUnits="userSpaceOnUse" gradientTransform="translate(544.48 24) rotate(150) scale(40 34.641)">
<stop stop-color="white"/>
<stop offset="0.5" stop-color="white" stop-opacity="0.25"/>
<stop offset="1" stop-color="white" stop-opacity="0"/>
</radialGradient>
<radialGradient id="paint12_radial_33325_31606" cx="0" cy="0" r="1" gradientUnits="userSpaceOnUse" gradientTransform="translate(592.979 52) rotate(150) scale(40 34.641)">
<stop stop-color="white"/>
<stop offset="0.5" stop-color="white" stop-opacity="0.25"/>
<stop offset="1" stop-color="white" stop-opacity="0"/>
</radialGradient>
<radialGradient id="paint13_radial_33325_31606" cx="0" cy="0" r="1" gradientUnits="userSpaceOnUse" gradientTransform="translate(641.475 80) rotate(150) scale(40 34.641)">
<stop stop-color="white"/>
<stop offset="0.5" stop-color="white" stop-opacity="0.25"/>
<stop offset="1" stop-color="white" stop-opacity="0"/>
</radialGradient>
<linearGradient id="paint14_linear_33325_31606" x1="100" y1="0" x2="100" y2="88" gradientUnits="userSpaceOnUse">
<stop stop-color="white" stop-opacity="0.12"/>
<stop offset="1" stop-color="white" stop-opacity="0.02"/>
</linearGradient>
<radialGradient id="paint15_radial_33325_31606" cx="0" cy="0" r="1" gradientUnits="userSpaceOnUse" gradientTransform="translate(724.613 128) rotate(150) scale(40 34.641)">
<stop stop-color="white"/>
<stop offset="0.5" stop-color="white" stop-opacity="0.25"/>
<stop offset="1" stop-color="white" stop-opacity="0"/>
</radialGradient>
<radialGradient id="paint16_radial_33325_31606" cx="0" cy="0" r="1" gradientUnits="userSpaceOnUse" gradientTransform="translate(773.111 156) rotate(150) scale(40 34.641)">
<stop stop-color="white"/>
<stop offset="0.5" stop-color="white" stop-opacity="0.25"/>
<stop offset="1" stop-color="white" stop-opacity="0"/>
</radialGradient>
<radialGradient id="paint17_radial_33325_31606" cx="0" cy="0" r="1" gradientUnits="userSpaceOnUse" gradientTransform="translate(821.607 184) rotate(150) scale(40 34.641)">
<stop stop-color="white"/>
<stop offset="0.5" stop-color="white" stop-opacity="0.25"/>
<stop offset="1" stop-color="white" stop-opacity="0"/>
</radialGradient>
<linearGradient id="paint18_linear_33325_31606" x1="100" y1="0" x2="100" y2="88" gradientUnits="userSpaceOnUse">
<stop stop-color="white" stop-opacity="0.12"/>
<stop offset="1" stop-color="white" stop-opacity="0.02"/>
</linearGradient>
<radialGradient id="paint19_radial_33325_31606" cx="0" cy="0" r="1" gradientUnits="userSpaceOnUse" gradientTransform="translate(322.777 -7.99998) rotate(150) scale(40 34.641)">
<stop stop-color="white"/>
<stop offset="0.5" stop-color="white" stop-opacity="0.25"/>
<stop offset="1" stop-color="white" stop-opacity="0"/>
</radialGradient>
<radialGradient id="paint20_radial_33325_31606" cx="0" cy="0" r="1" gradientUnits="userSpaceOnUse" gradientTransform="translate(371.275 20) rotate(150) scale(40 34.641)">
<stop stop-color="white"/>
<stop offset="0.5" stop-color="white" stop-opacity="0.25"/>
<stop offset="1" stop-color="white" stop-opacity="0"/>
</radialGradient>
<radialGradient id="paint21_radial_33325_31606" cx="0" cy="0" r="1" gradientUnits="userSpaceOnUse" gradientTransform="translate(419.771 48) rotate(150) scale(40 34.641)">
<stop stop-color="white"/>
<stop offset="0.5" stop-color="white" stop-opacity="0.25"/>
<stop offset="1" stop-color="white" stop-opacity="0"/>
</radialGradient>
<linearGradient id="paint22_linear_33325_31606" x1="100" y1="0" x2="100" y2="88" gradientUnits="userSpaceOnUse">
<stop stop-color="white" stop-opacity="0.12"/>
<stop offset="1" stop-color="white" stop-opacity="0.02"/>
</linearGradient>
<radialGradient id="paint23_radial_33325_31606" cx="0" cy="0" r="1" gradientUnits="userSpaceOnUse" gradientTransform="translate(502.912 96) rotate(150) scale(40 34.641)">
<stop stop-color="white"/>
<stop offset="0.5" stop-color="white" stop-opacity="0.25"/>
<stop offset="1" stop-color="white" stop-opacity="0"/>
</radialGradient>
<radialGradient id="paint24_radial_33325_31606" cx="0" cy="0" r="1" gradientUnits="userSpaceOnUse" gradientTransform="translate(551.41 124) rotate(150) scale(40 34.641)">
<stop stop-color="white"/>
<stop offset="0.5" stop-color="white" stop-opacity="0.25"/>
<stop offset="1" stop-color="white" stop-opacity="0"/>
</radialGradient>
<radialGradient id="paint25_radial_33325_31606" cx="0" cy="0" r="1" gradientUnits="userSpaceOnUse" gradientTransform="translate(599.906 152) rotate(150) scale(40 34.641)">
<stop stop-color="white"/>
<stop offset="0.5" stop-color="white" stop-opacity="0.25"/>
<stop offset="1" stop-color="white" stop-opacity="0"/>
</radialGradient>
<linearGradient id="paint26_linear_33325_31606" x1="100" y1="0" x2="100" y2="88" gradientUnits="userSpaceOnUse">
<stop stop-color="white" stop-opacity="0.12"/>
<stop offset="1" stop-color="white" stop-opacity="0.02"/>
</linearGradient>
<radialGradient id="paint27_radial_33325_31606" cx="0" cy="0" r="1" gradientUnits="userSpaceOnUse" gradientTransform="translate(683.045 200) rotate(150) scale(40 34.641)">
<stop stop-color="white"/>
<stop offset="0.5" stop-color="white" stop-opacity="0.25"/>
<stop offset="1" stop-color="white" stop-opacity="0"/>
</radialGradient>
<radialGradient id="paint28_radial_33325_31606" cx="0" cy="0" r="1" gradientUnits="userSpaceOnUse" gradientTransform="translate(731.543 228) rotate(150) scale(40 34.641)">
<stop stop-color="white"/>
<stop offset="0.5" stop-color="white" stop-opacity="0.25"/>
<stop offset="1" stop-color="white" stop-opacity="0"/>
</radialGradient>
<radialGradient id="paint29_radial_33325_31606" cx="0" cy="0" r="1" gradientUnits="userSpaceOnUse" gradientTransform="translate(780.039 256) rotate(150) scale(40 34.641)">
<stop stop-color="white"/>
<stop offset="0.5" stop-color="white" stop-opacity="0.25"/>
<stop offset="1" stop-color="white" stop-opacity="0"/>
</radialGradient>
<clipPath id="clip0_33325_31606">
<rect width="768" height="278" rx="32" fill="white"/>
</clipPath>
<clipPath id="clip1_33325_31606">
<rect width="1024" height="1024" fill="white" transform="translate(104 -553)"/>
</clipPath>
<clipPath id="clip2_33325_31606">
<rect width="24" height="24" fill="white" transform="matrix(0.866025 0.5 -0.866025 0.5 669.189 -12)"/>
</clipPath>
<clipPath id="clip3_33325_31606">
<rect width="24" height="24" fill="white" transform="matrix(0.866025 0.5 -0.866025 0.5 717.688 16)"/>
</clipPath>
<clipPath id="clip4_33325_31606">
<rect width="24" height="24" fill="white" transform="matrix(0.866025 0.5 -0.866025 0.5 766.184 44)"/>
</clipPath>
<clipPath id="clip5_33325_31606">
<rect width="24" height="24" fill="white" transform="matrix(0.866025 0.5 -0.866025 0.5 544.48 12)"/>
</clipPath>
<clipPath id="clip6_33325_31606">
<rect width="24" height="24" fill="white" transform="matrix(0.866025 0.5 -0.866025 0.5 592.979 40)"/>
</clipPath>
<clipPath id="clip7_33325_31606">
<rect width="24" height="24" fill="white" transform="matrix(0.866025 0.5 -0.866025 0.5 641.475 68)"/>
</clipPath>
<clipPath id="clip8_33325_31606">
<rect width="24" height="24" fill="white" transform="matrix(0.866025 0.5 -0.866025 0.5 724.613 116)"/>
</clipPath>
<clipPath id="clip9_33325_31606">
<rect width="24" height="24" fill="white" transform="matrix(0.866025 0.5 -0.866025 0.5 322.777 -20)"/>
</clipPath>
<clipPath id="clip10_33325_31606">
<rect width="24" height="24" fill="white" transform="matrix(0.866025 0.5 -0.866025 0.5 371.275 8.00002)"/>
</clipPath>
<clipPath id="clip11_33325_31606">
<rect width="24" height="24" fill="white" transform="matrix(0.866025 0.5 -0.866025 0.5 419.771 36)"/>
</clipPath>
<clipPath id="clip12_33325_31606">
<rect width="24" height="24" fill="white" transform="matrix(0.866025 0.5 -0.866025 0.5 502.912 84)"/>
</clipPath>
<clipPath id="clip13_33325_31606">
<rect width="24" height="24" fill="white" transform="matrix(0.866025 0.5 -0.866025 0.5 551.41 112)"/>
</clipPath>
<clipPath id="clip14_33325_31606">
<rect width="24" height="24" fill="white" transform="matrix(0.866025 0.5 -0.866025 0.5 599.906 140)"/>
</clipPath>
<clipPath id="clip15_33325_31606">
<rect width="24" height="24" fill="white" transform="matrix(0.866025 0.5 -0.866025 0.5 683.045 188)"/>
</clipPath>
<clipPath id="clip16_33325_31606">
<rect width="24" height="24" fill="white" transform="matrix(0.866025 0.5 -0.866025 0.5 731.543 216)"/>
</clipPath>
<clipPath id="clip17_33325_31606">
<rect width="24" height="24" fill="white" transform="matrix(0.866025 0.5 -0.866025 0.5 780.039 244)"/>
</clipPath>
</defs>
</svg>
